<?xml version="1.0" encoding="UTF-8"?>
<!DOCTYPE svg PUBLIC "-//W3C//DTD SVG 1.1//EN" "http://www.w3.org/Graphics/SVG/1.1/DTD/svg11.dtd">
<!-- Creator: CorelDRAW X8 -->
<svg xmlns="http://www.w3.org/2000/svg" xml:space="preserve" width="210mm" height="297mm" version="1.1" style="shape-rendering:geometricPrecision; text-rendering:geometricPrecision; image-rendering:optimizeQuality; fill-rule:evenodd; clip-rule:evenodd"
viewBox="0 0 21000 29700"
 xmlns:xlink="http://www.w3.org/1999/xlink">
 <defs>
  <style type="text/css">
   <![CDATA[
    .str1 {stroke:#BE6C38;stroke-width:100}
    .str2 {stroke:#A5A241;stroke-width:50}
    .str3 {stroke:#A7A443;stroke-width:50}
    .str0 {stroke:#332C2B;stroke-width:20}
    .str6 {stroke:#FFF7CD;stroke-width:100;stroke-linejoin:bevel}
    .str5 {stroke:#FFF7CD;stroke-width:100;stroke-linecap:round}
    .str7 {stroke:#7A6145;stroke-width:200;stroke-linecap:round}
    .str4 {stroke:#FFF7CD;stroke-width:150;stroke-linecap:round}
    .fil8 {fill:none}
    .fil6 {fill:#FEFEFE}
    .fil9 {fill:#332C2B}
    .fil10 {fill:#FFF7CD}
    .fil1 {fill:black}
    .fil2 {fill:#A06B28}
    .fil3 {fill:#A56923}
    .fil0 {fill:#A6A342}
    .fil7 {fill:#BAB863}
    .fil5 {fill:#BAB95D}
    .fil4 {fill:#BB8B4B}
   ]]>
  </style>
 </defs>
 <g id="图层_x0020_1">
  <metadata id="CorelCorpID_0Corel-Layer"/>
  <polygon class="fil0 str0" points="13447,18132 13082,18305 12988,18116 "/>
  <polygon class="fil0 str0" points="12103,18730 12515,18590 12438,18370 "/>
  <path class="fil1 str0" d="M10270 7039c-54,-47 -109,-94 -163,-140 0,0 -97,-189 -93,-220 4,-31 0,-18 9,-84 9,-66 26,-105 -14,-136 -39,-31 -70,-61 -70,-97 0,-35 -14,-162 -31,-211 -18,-48 -31,-87 -44,-123 -14,-35 8,-127 39,-171 31,-44 22,-53 84,-97 62,-44 142,-132 142,-132 0,0 208,-61 234,-61 27,0 120,22 120,22 0,0 22,75 93,22 70,-53 123,-110 123,-110 90,-38 180,-76 270,-114 0,0 13,0 71,4 57,4 186,53 186,53 0,0 35,39 75,31 39,-9 172,-31 172,-31 53,26 106,53 159,79 0,0 76,9 111,66 35,57 110,149 119,206 9,58 9,106 9,106 -7,28 -15,56 -22,83 0,0 -13,14 58,40 70,26 123,75 110,75 0,0 150,219 141,268 -9,48 -31,92 -31,92 0,0 -18,88 -40,149 -22,62 -44,146 -52,172 -9,26 22,-18 -27,101 -48,119 -206,259 -206,259 0,0 110,18 -79,44 -189,27 -220,9 -339,5 -118,-5 -215,-40 -382,-53 -167,-13 -233,-22 -365,-22 -132,0 -132,-4 -193,-4 -62,0 -62,8 -106,0 -44,-9 -68,-71 -68,-71z"/>
  <path class="fil2" d="M9687 11223c-401,1520 -219,3112 -116,4642 820,8 1641,17 2461,26 241,-1005 446,-2033 405,-3226 -109,-451 -112,-960 -220,-1411 -808,-29 -1722,-2 -2530,-31z"/>
  <path class="fil3" d="M8911 9409c0,0 -85,-69 -109,-71 -24,-2 -70,0 -88,6 -17,7 -61,14 -81,40 -20,26 -24,9 -53,72 -57,128 39,508 143,585 18,13 72,59 97,73 24,13 72,41 92,54 20,14 88,35 88,35 22,-4 68,10 66,-13 -30,-263 -104,-520 -155,-781z"/>
  <ellipse class="fil4" cx="11126" cy="9591" rx="2224" ry="2083"/>
  <path class="fil5 str0" d="M10214 6940c-25,-122 127,-215 187,-325 93,-171 296,-193 447,-211 30,-4 449,41 502,44 66,3 359,263 359,295 -2,69 131,169 76,224 -23,23 -58,32 -87,48 0,0 -356,-61 -453,-48 -97,13 -765,39 -765,39 -89,-22 -248,24 -266,-66z"/>
  <path class="fil1" d="M8868 9331c-50,-46 -127,-63 -166,-119 -65,-93 -120,-199 -138,-311 -14,-92 3,-193 46,-275 41,-79 124,-128 193,-184 72,-58 189,-73 230,-155 21,-43 -76,-61 -101,-101 -28,-44 -68,-96 -55,-147 33,-127 85,-262 184,-348 130,-114 211,-83 211,-83 65,3 129,6 194,9 0,0 2,-180 16,-202 47,-77 194,-202 255,-220 62,-17 221,-35 221,-35 32,0 65,0 97,0 0,0 115,-105 159,-220 44,-114 379,-219 379,-219 53,17 114,19 159,52 59,43 69,163 141,167 139,9 53,9 177,-61 123,-71 44,-71 141,-79 97,-9 88,-27 185,0 97,26 177,52 230,79 53,26 70,44 132,44 62,0 256,-35 344,-27 88,9 115,71 115,71 44,64 82,133 132,193 36,43 73,91 124,114 94,43 200,53 300,79 0,0 88,-17 88,71 0,88 176,246 176,246 3,50 -19,108 9,149 41,60 118,82 177,123 0,0 176,299 149,352 -26,53 -26,97 -26,97 0,0 -53,140 44,149 96,9 228,-17 299,70 70,88 88,141 61,247 -26,105 -9,114 -44,175 -35,62 -44,79 -61,141 -18,62 -18,88 -18,88 -56,3 -114,27 -167,9 -63,-22 -107,-82 -160,-122 0,0 -112,-10 -121,-133 -9,-123 -220,-273 -220,-273 0,0 3,-54 26,-158 24,-104 -123,-211 -123,-211 -35,-94 -100,-110 -175,-176 -47,-41 -58,-53 -115,-79 -34,-15 34,-100 -2,-112 -52,-17 -103,78 -156,59 -53,-18 -53,-100 -88,-145 -50,-62 -89,-150 -165,-174 -43,-14 -59,69 -99,91 -71,39 -147,75 -228,88 -37,6 -70,-24 -106,-35 0,0 -123,70 -131,131 -9,62 -27,106 -27,106 0,0 53,9 -79,35 -132,26 -88,26 -193,26 -106,0 -229,-17 -229,-17 -35,-6 -70,-15 -105,-18 -70,-6 -144,-29 -211,-8 -81,25 -59,-3 -137,30 -54,24 -187,-97 -246,-101 -32,-2 -217,-15 -246,-31 -77,-42 5,131 -74,93 -45,-21 -92,-44 -141,-44 -38,0 -68,41 -106,44 -44,3 -91,-8 -131,-27 -22,-10 -24,-52 -48,-55 -44,-4 -96,7 -128,38 -43,41 -49,108 -75,161 -30,64 -50,134 -92,190 -32,43 -92,58 -125,100 -36,45 -52,104 -77,155 -30,59 -64,115 -89,176 -23,54 -44,109 -57,167 -66,280 -70,368 -70,368 -15,-26 -22,-57 -43,-78z"/>
  <path class="fil6 str1" d="M9829 9534c742,1514 2103,1314 2674,15 -888,262 -1779,249 -2674,-15z"/>
  <path class="fil2" d="M9687 11223c-2359,-56 -3662,-1135 -2810,-4074l-315 -124c-142,448 -730,2501 -59,3614 700,1160 1989,1360 3012,1432l172 -848z"/>
  <path class="fil2" d="M12243 11392c1178,537 2423,1245 2648,4741 -111,23 -198,-63 -310,-40 -175,-1759 -998,-2801 -2144,-3472l-194 -1229z"/>
  <polygon class="fil0" points="8956,18339 9448,18406 9566,18208 9030,18149 "/>
  <path class="fil0" d="M10507 18642l-358 -65c0,0 41,-261 59,-268 17,-7 299,333 299,333z"/>
  <path class="fil2" d="M9353 18003c-99,1653 -313,3287 -624,4904 153,47 305,94 457,141 619,-1556 901,-3238 1144,-4981 -358,-24 -619,-41 -977,-64z"/>
  <path class="fil2" d="M12896 17774c264,686 729,1325 791,2057 100,1190 -211,2379 -316,3569 -212,3 -260,20 -467,-3 94,-1079 232,-2156 115,-3232 -82,-755 -574,-1406 -861,-2110 246,-93 492,-187 738,-281z"/>
  <path class="fil2" d="M8729 22907c-348,360 -586,728 -782,1099 303,191 634,208 985,106 40,-213 81,-426 211,-651 58,-100 68,-242 43,-413 -152,-47 -304,-94 -457,-141z"/>
  <path class="fil2" d="M12904 23397c4,3 462,-1 467,3 235,199 577,194 871,382 62,40 92,71 87,109 -8,63 4,121 -2,185 -493,0 -1027,-8 -1519,-8 32,-224 64,-448 96,-671z"/>
  <ellipse class="fil2" cx="14667" cy="16330" rx="294" ry="270"/>
  <path class="fil7" d="M9756 15759c-61,-2 -122,-3 -183,-5 -354,427 -960,2332 -617,2585 520,-65 1125,-14 1551,303 147,-173 299,-438 514,-510 167,-55 330,126 484,211 207,115 398,258 598,387 314,-217 612,-460 1098,-571 81,-19 164,-18 246,-27 -176,-361 -531,-1224 -729,-1481 -98,-126 -508,-811 -637,-905 -759,138 -1567,194 -2325,13z"/>
  <path class="fil8 str2" d="M9961 16612c-170,274 -268,367 -369,677 -41,124 -175,319 -220,449"/>
  <path class="fil8 str3" d="M10576 16784c-51,237 -160,427 -221,681 -32,132 -83,374 -175,480l-4 8"/>
  <path class="fil8 str2" d="M11459 16439c28,165 101,479 174,618 104,199 142,504 269,720 9,16 23,75 10,29"/>
  <path class="fil8 str2" d="M12111 16467c43,48 361,619 381,681 26,84 69,369 160,432l4 8"/>
  <path class="fil8 str4" d="M9195 10334c148,-143 159,-224 373,-330 10,-5 44,-33 53,-34"/>
  <path class="fil8 str4" d="M9022 9715c114,-65 134,-114 283,-146 7,-1 32,-13 38,-12"/>
  <path class="fil8 str4" d="M9041 9167c112,-36 138,-75 274,-76 7,0 31,-6 36,-4"/>
  <path class="fil8 str4" d="M13026 10391c-148,-144 -159,-224 -373,-330 -10,-6 -44,-33 -52,-34"/>
  <path class="fil8 str4" d="M13199 9772c-114,-66 -133,-114 -282,-146 -8,-2 -33,-13 -38,-13"/>
  <path class="fil8 str4" d="M13181 9224c-112,-37 -138,-75 -275,-76 -6,0 -31,-6 -35,-4"/>
  <g id="_2115064852208">
   <ellipse class="fil6" cx="10180" cy="8728" rx="268" ry="310"/>
   <ellipse class="fil9" cx="10218" cy="8774" rx="220" ry="211"/>
  </g>
  <path class="fil3" d="M13314 9212c0,0 178,-81 205,-4 7,23 52,46 70,53 17,6 61,13 81,39 20,27 24,9 53,73 57,127 -39,507 -143,585 -17,13 -72,59 -97,72 -24,13 -72,42 -92,55 -20,13 -88,35 -88,35 -22,-4 -68,9 -66,-13 30,-264 25,-634 77,-895z"/>
  <g id="_2115065482432">
   <ellipse class="fil6" cx="11881" cy="8721" rx="268" ry="310"/>
   <ellipse class="fil9" cx="11919" cy="8767" rx="220" ry="211"/>
  </g>
  <path class="fil8 str5" d="M10794 9106c124,-56 560,-50 692,11"/>
  <path class="fil8 str5" d="M10796 9330c125,-57 560,-51 692,11"/>
  <ellipse class="fil10" cx="9938" cy="12390" rx="79" ry="86"/>
  <path class="fil8 str5" d="M9210 20308c198,14 412,33 615,86"/>
  <path class="fil8 str5" d="M9561 20342c-56,103 -415,1887 -471,2006"/>
  <path class="fil8 str5" d="M13608 20836c-46,107 -249,1916 -294,2040"/>
  <path class="fil8 str6" d="M13254 20779c118,-6 314,5 434,7"/>
  <ellipse class="fil10" cx="10042" cy="12631" rx="79" ry="86"/>
  <ellipse class="fil10" cx="10173" cy="12948" rx="79" ry="86"/>
  <ellipse class="fil10" cx="10302" cy="13592" rx="79" ry="86"/>
  <ellipse class="fil10" cx="10244" cy="13280" rx="79" ry="86"/>
  <ellipse class="fil10" cx="10319" cy="13917" rx="79" ry="86"/>
  <ellipse class="fil10" cx="10314" cy="14220" rx="79" ry="86"/>
  <ellipse class="fil10" cx="10303" cy="14576" rx="79" ry="86"/>
  <ellipse class="fil10" cx="10217" cy="14912" rx="79" ry="86"/>
  <ellipse class="fil10" cx="10125" cy="15262" rx="79" ry="86"/>
  <ellipse class="fil10" cx="11951" cy="12379" rx="79" ry="86"/>
  <ellipse class="fil10" cx="11848" cy="12620" rx="79" ry="86"/>
  <ellipse class="fil10" cx="11716" cy="12937" rx="79" ry="86"/>
  <ellipse class="fil10" cx="11588" cy="13581" rx="79" ry="86"/>
  <ellipse class="fil10" cx="11646" cy="13269" rx="79" ry="86"/>
  <ellipse class="fil10" cx="11571" cy="13906" rx="79" ry="86"/>
  <ellipse class="fil10" cx="11575" cy="14209" rx="79" ry="86"/>
  <ellipse class="fil10" cx="11586" cy="14565" rx="79" ry="86"/>
  <ellipse class="fil10" cx="11672" cy="14901" rx="79" ry="86"/>
  <ellipse class="fil10" cx="11764" cy="15251" rx="79" ry="86"/>
  <path class="fil8 str7" d="M1163 10033l13066 -7203c253,-167 506,-335 758,-503 -229,303 -514,557 -797,813l39 -310"/>
  <ellipse class="fil2" cx="6862" cy="6852" rx="352" ry="330"/>
 </g>
</svg>
