<?xml version="1.0" encoding="UTF-8"?>
<!DOCTYPE svg PUBLIC "-//W3C//DTD SVG 1.1//EN" "http://www.w3.org/Graphics/SVG/1.1/DTD/svg11.dtd">
<!-- Creator: CorelDRAW X8 -->
<svg xmlns="http://www.w3.org/2000/svg" xml:space="preserve" width="210mm" height="297mm" version="1.1" style="shape-rendering:geometricPrecision; text-rendering:geometricPrecision; image-rendering:optimizeQuality; fill-rule:evenodd; clip-rule:evenodd"
viewBox="0 0 21000 29700"
 xmlns:xlink="http://www.w3.org/1999/xlink">
 <defs>
  <style type="text/css">
   <![CDATA[
    .str0 {stroke:#BE6C38;stroke-width:100}
    .str14 {stroke:#BE6C38;stroke-width:100}
    .str4 {stroke:#A5A241;stroke-width:50.01}
    .str3 {stroke:#A5A241;stroke-width:50.01}
    .str1 {stroke:#A5A241;stroke-width:50.01}
    .str2 {stroke:#A7A443;stroke-width:50.01}
    .str18 {stroke:#A5A241;stroke-width:50.01}
    .str15 {stroke:#A5A241;stroke-width:50.01}
    .str16 {stroke:#A7A443;stroke-width:50.01}
    .str17 {stroke:#A5A241;stroke-width:50.01}
    .str13 {stroke:#332C2B;stroke-width:20}
    .str12 {stroke:#332C2B;stroke-width:20}
    .str11 {stroke:#7A6145;stroke-width:200;stroke-linecap:round}
    .str22 {stroke:#7A6145;stroke-width:200;stroke-linecap:round}
    .str5 {stroke:#FFF7CD;stroke-width:150;stroke-linecap:round}
    .str8 {stroke:#FFF7CD;stroke-width:150;stroke-linecap:round}
    .str19 {stroke:#FFF7CD;stroke-width:150;stroke-linecap:round}
    .str6 {stroke:#FFF7CD;stroke-width:150;stroke-linecap:round}
    .str9 {stroke:#FFF7CD;stroke-width:150;stroke-linecap:round}
    .str7 {stroke:#FFF7CD;stroke-width:150;stroke-linecap:round}
    .str10 {stroke:#FFF7CD;stroke-width:150;stroke-linecap:round}
    .str20 {stroke:#FFF7CD;stroke-width:150;stroke-linecap:round}
    .str21 {stroke:#FFF7CD;stroke-width:150;stroke-linecap:round}
    .fil8 {fill:none}
    .fil6 {fill:#FEFEFE}
    .fil9 {fill:#332C2B}
    .fil11 {fill:#FFF7CD}
    .fil2 {fill:black}
    .fil3 {fill:#A06B28}
    .fil12 {fill:#A06B28}
    .fil4 {fill:#A56923}
    .fil1 {fill:#A6A342}
    .fil7 {fill:#BAB863}
    .fil5 {fill:#BAB95D}
    .fil0 {fill:#BB8B4B}
    .fil10 {fill:#FFF7CD;fill-rule:nonzero}
   ]]>
  </style>
 </defs>
 <g id="图层_x0020_1">
  <metadata id="CorelCorpID_0Corel-Layer"/>
  <path class="fil0" d="M11148 13417c-963,381 -2004,922 -2757,4340 79,37 158,-37 236,0 246,-989 611,-1714 1061,-2251 329,-392 704,-683 1111,-902l349 -1187z"/>
  <polygon class="fil1" points="-13987,18278 -14353,18450 -14447,18261 "/>
  <polygon class="fil1" points="-15332,18876 -14919,18736 -14996,18516 "/>
  <path class="fil2" d="M-17164 7185c-55,-47 -109,-94 -164,-141 0,0 -97,-189 -93,-219 5,-31 0,-18 9,-84 9,-66 26,-105 -13,-136 -40,-31 -71,-62 -71,-97 0,-35 -13,-163 -31,-211 -18,-48 -31,-88 -44,-123 -13,-35 9,-127 40,-171 31,-44 22,-53 84,-97 62,-44 141,-132 141,-132 0,0 208,-61 234,-61 27,0 120,22 120,22 0,0 22,74 93,22 70,-53 124,-110 124,-110 89,-38 179,-77 269,-115 0,0 14,0 71,5 57,4 186,53 186,53 0,0 35,39 75,30 40,-8 172,-30 172,-30 53,26 106,52 160,79 0,0 75,8 110,66 35,57 111,149 119,206 9,57 9,106 9,106 -7,27 -14,55 -22,83 0,0 -13,13 58,40 70,26 124,74 110,74 0,0 150,220 141,268 -9,49 -31,93 -31,93 0,0 -17,88 -39,149 -22,62 -44,145 -53,172 -9,26 22,-18 -26,101 -49,118 -207,259 -207,259 0,0 110,18 -79,44 -189,26 -220,9 -339,4 -118,-4 -215,-39 -382,-52 -167,-14 -233,-22 -365,-22 -132,0 -132,-5 -193,-5 -62,0 -62,9 -106,0 -44,-9 -67,-70 -67,-70z"/>
  <path class="fil3" d="M-17747 11369c-402,1519 -220,3112 -117,4641 821,9 1641,18 2461,27 241,-1005 446,-2033 405,-3226 -109,-452 -112,-960 -220,-1411 -808,-30 -1721,-2 -2529,-31z"/>
  <path class="fil4" d="M-18524 9555c0,0 -85,-69 -109,-71 -24,-3 -70,0 -88,6 -17,7 -61,13 -81,40 -20,26 -24,8 -53,72 -57,127 40,507 143,585 18,13 73,59 97,72 24,13 72,42 92,55 20,13 89,35 89,35 21,-4 67,9 65,-13 -30,-264 -103,-521 -155,-781z"/>
  <ellipse class="fil0" cx="-16308" cy="9736" rx="2224" ry="2083"/>
  <path class="fil5" d="M-17221 7086c-25,-123 128,-215 187,-325 93,-171 296,-194 447,-212 31,-3 449,42 503,45 65,3 359,263 358,294 -2,70 132,170 77,224 -24,24 -59,33 -88,49 0,0 -356,-62 -453,-49 -97,14 -765,40 -765,40 -88,-22 -248,24 -266,-66z"/>
  <path class="fil2" d="M-18567 9477c-50,-47 -127,-64 -166,-119 -65,-93 -120,-200 -138,-312 -14,-92 3,-192 46,-275 41,-78 124,-127 193,-183 73,-58 189,-73 230,-156 22,-42 -75,-60 -101,-101 -28,-44 -68,-96 -55,-146 33,-127 85,-262 184,-348 130,-114 211,-83 211,-83 65,3 129,6 194,8 0,0 2,-179 16,-201 47,-78 194,-202 256,-220 61,-18 220,-35 220,-35 33,0 65,0 97,0 0,0 115,-106 159,-220 44,-114 380,-220 380,-220 53,18 113,20 158,53 59,43 69,162 142,167 139,9 52,9 176,-62 124,-70 44,-70 141,-79 97,-8 88,-26 185,0 98,27 177,53 230,79 53,27 70,44 132,44 62,0 256,-35 344,-26 89,9 115,70 115,70 44,65 82,134 132,194 36,43 73,91 124,114 94,43 200,53 300,79 0,0 88,-17 88,70 0,88 177,247 177,247 3,49 -20,108 8,149 41,59 118,82 177,123 0,0 176,299 149,352 -26,52 -26,96 -26,96 0,0 -53,141 44,150 97,9 229,-18 299,70 70,88 88,141 61,246 -26,106 -8,115 -44,176 -35,62 -44,79 -61,141 -18,61 -18,88 -18,88 -55,3 -114,27 -167,8 -63,-22 -106,-81 -160,-122 0,0 -112,-9 -121,-133 -9,-123 -220,-272 -220,-272 0,0 3,-55 27,-158 23,-104 -123,-211 -123,-211 -36,-94 -101,-110 -176,-176 -47,-41 -58,-53 -115,-79 -33,-16 34,-100 -1,-112 -53,-18 -104,78 -157,59 -53,-19 -53,-101 -88,-145 -49,-63 -89,-150 -165,-174 -43,-14 -59,69 -98,91 -72,39 -148,75 -229,88 -36,5 -70,-24 -105,-36 0,0 -123,71 -132,132 -9,62 -27,106 -27,106 0,0 53,8 -79,35 -132,26 -88,26 -193,26 -106,0 -229,-17 -229,-17 -35,-6 -70,-15 -105,-18 -70,-6 -144,-30 -211,-9 -81,25 -59,-2 -136,31 -55,24 -187,-97 -246,-101 -33,-2 -218,-15 -247,-31 -76,-43 5,130 -74,92 -45,-21 -92,-43 -141,-43 -38,0 -67,41 -105,43 -45,4 -91,-7 -132,-26 -22,-10 -23,-53 -47,-55 -45,-4 -97,6 -129,38 -42,41 -49,107 -75,161 -30,64 -50,134 -92,190 -32,43 -92,58 -125,100 -36,45 -51,103 -77,155 -30,59 -63,115 -89,175 -23,55 -44,110 -57,167 -66,280 -70,369 -70,369 -14,-26 -22,-58 -43,-78z"/>
  <path class="fil6 str0" d="M-17606 9680c742,1514 2103,1314 2674,15 -887,262 -1779,249 -2674,-15z"/>
  <path class="fil0" d="M-17747 11369c-2360,-56 -3663,-1135 -2811,-4074l-315 -125c-142,449 -730,2501 -58,3615 699,1160 1988,1360 3011,1432l173 -848z"/>
  <path class="fil0" d="M-15191 11538c1177,537 2422,1245 2647,4740 -111,24 -198,-63 -309,-39 -176,-1759 -1029,-2775 -2176,-3446l-162 -1255z"/>
  <polygon class="fil1" points="-18479,18485 -17987,18551 -17869,18354 -18405,18294 "/>
  <path class="fil1" d="M-16928 18788l-358 -65c0,0 41,-262 59,-268 18,-7 299,333 299,333z"/>
  <path class="fil3" d="M-18081 18148c-100,1653 -314,3287 -624,4905 152,47 304,94 457,141 618,-1556 900,-3238 1143,-4982 -358,-23 -619,-40 -976,-64z"/>
  <path class="fil3" d="M-14539 17920c264,685 729,1325 791,2057 101,1190 -211,2379 -316,3568 -212,4 -259,21 -466,-3 93,-1078 231,-2155 114,-3231 -82,-755 -574,-1407 -861,-2110 246,-94 492,-187 738,-281z"/>
  <path class="fil3" d="M-18705 23053c-348,360 -587,728 -783,1099 304,191 635,208 985,105 41,-213 81,-425 211,-650 58,-101 68,-242 44,-413 -153,-47 -305,-94 -457,-141z"/>
  <path class="fil3" d="M-14530 23542c4,4 462,0 466,3 235,199 577,195 871,382 63,40 92,71 87,109 -8,64 4,122 -2,186 -493,0 -1027,-9 -1519,-9 32,-223 64,-447 97,-671z"/>
  <ellipse class="fil0" cx="-12680" cy="16406" rx="294" ry="270"/>
  <path class="fil7" d="M-17679 15905c-61,-2 -122,-3 -183,-5 -354,426 -959,2331 -617,2585 520,-65 1126,-14 1551,303 147,-173 300,-438 515,-510 166,-56 329,126 483,211 208,115 399,258 598,387 314,-218 612,-461 1099,-572 80,-18 164,-17 246,-26 -177,-361 -532,-1224 -730,-1481 -97,-126 -508,-812 -637,-905 -759,137 -1566,194 -2325,13z"/>
  <path class="fil8 str1" d="M-17474 16758c-169,274 -267,367 -369,676 -41,124 -175,319 -220,449"/>
  <path class="fil8 str2" d="M-16859 16930c-51,237 -160,427 -221,681 -32,132 -83,373 -175,479l-4 9"/>
  <path class="fil8 str3" d="M-15976 16585c28,165 101,479 174,617 104,199 143,504 269,721 9,15 23,74 10,29"/>
  <path class="fil8 str4" d="M-15324 16613c43,47 361,618 381,681 26,84 69,368 160,432l4 8"/>
  <path class="fil8 str5" d="M-18239 10480c148,-144 159,-224 372,-330 11,-6 44,-33 53,-34"/>
  <path class="fil8 str6" d="M-18412 9861c114,-66 133,-114 282,-146 7,-2 32,-13 38,-13"/>
  <path class="fil8 str7" d="M-18394 9313c112,-37 138,-75 275,-76 6,0 30,-6 35,-4"/>
  <path class="fil8 str8" d="M-14409 10537c-148,-144 -159,-225 -372,-331 -11,-5 -44,-32 -53,-34"/>
  <path class="fil8 str9" d="M-14236 9917c-114,-65 -133,-113 -282,-145 -7,-2 -32,-13 -38,-13"/>
  <path class="fil8 str10" d="M-14254 9369c-112,-36 -138,-75 -275,-76 -6,0 -30,-5 -35,-4"/>
  <g id="_2149569003856">
   <ellipse class="fil6" cx="-17255" cy="8874" rx="268" ry="310"/>
   <ellipse class="fil9" cx="-17217" cy="8920" rx="220" ry="211"/>
  </g>
  <path class="fil4" d="M-14121 9358c0,0 178,-81 205,-4 8,23 53,46 70,53 18,6 62,13 81,39 20,27 25,9 53,73 57,127 -39,507 -143,584 -17,13 -72,60 -96,73 -25,13 -73,42 -93,55 -19,13 -88,35 -88,35 -22,-5 -68,9 -65,-13 29,-264 24,-635 76,-895z"/>
  <g id="_2149568999344">
   <ellipse class="fil6" cx="-15553" cy="8867" rx="268" ry="310"/>
   <ellipse class="fil9" cx="-15515" cy="8912" rx="220" ry="211"/>
  </g>
  <g>
   <path class="fil10" d="M-16620 9298c-26,11 -55,0 -67,-25 -11,-25 0,-55 25,-66l42 91zm692 -80l-42 90 -11 -4 -12 -4 -14 -4 -16 -5 -18 -4 -19 -3 -21 -4 -21 -3 -23 -3 -23 -2 -24 -3 -25 -1 -25 -2 -25 -1 -26 -1 -26 -1 -25 0 -26 0 -25 1 -25 0 -25 2 -23 1 -23 2 -23 2 -21 2 -20 3 -18 3 -18 4 -15 3 -14 4 -11 4 -9 4 -42 -91 16 -7 17 -6 18 -5 20 -4 20 -4 21 -4 23 -3 23 -2 24 -3 25 -2 25 -1 26 -1 26 -1 27 -1 27 0 27 0 27 1 27 1 27 1 26 2 26 2 26 2 25 3 24 3 24 3 23 4 21 4 21 5 20 5 18 6 18 6 16 7zm0 0c25,12 36,41 24,66 -11,25 -41,36 -66,24l42 -90z"/>
  </g>
  <g>
   <path class="fil10" d="M-16618 9521c-25,11 -55,0 -66,-25 -12,-25 0,-55 25,-66l41 91zm693 -80l-43 91 -10 -5 -12 -4 -15 -4 -16 -4 -17 -4 -20 -4 -20 -4 -21 -3 -23 -3 -23 -2 -24 -2 -25 -2 -25 -2 -25 -1 -26 -1 -26 0 -26 -1 -25 0 -26 1 -24 1 -25 1 -24 1 -23 2 -22 2 -21 3 -20 2 -19 4 -17 3 -15 4 -14 3 -12 4 -9 4 -41 -91 16 -7 17 -5 18 -5 19 -5 21 -4 21 -3 22 -3 23 -3 24 -3 25 -1 26 -2 26 -1 26 -1 27 -1 27 0 27 1 27 0 27 1 27 1 26 2 26 2 26 2 25 3 24 3 24 4 22 4 22 4 21 4 19 5 19 6 17 6 17 7zm0 0c25,12 36,42 24,67 -12,25 -42,35 -67,24l43 -91z"/>
  </g>
  <ellipse class="fil11" cx="-17496" cy="12535" rx="79" ry="86"/>
  <g>
   <path class="fil10" d="M-18229 20504c-27,-2 -48,-26 -46,-53 1,-28 25,-49 53,-47l-7 100zm632 -12l-26 96 -18 -4 -19 -5 -19 -4 -18 -5 -19 -4 -19 -4 -19 -3 -19 -4 -19 -3 -19 -4 -19 -3 -19 -3 -19 -3 -19 -2 -19 -3 -19 -2 -20 -3 -19 -2 -19 -2 -19 -2 -19 -2 -19 -2 -19 -2 -19 -2 -19 -1 -19 -2 -19 -1 -19 -2 -19 -1 -18 -1 -19 -2 -19 -1 7 -100 19 2 19 1 19 1 19 2 19 1 19 2 19 1 20 2 19 2 20 1 19 2 20 2 19 2 20 3 20 2 19 2 20 3 20 3 20 2 19 3 20 3 20 4 20 3 20 4 19 3 20 4 20 4 20 5 19 4 20 5 20 5 19 5zm0 0c27,7 43,34 36,61 -7,27 -35,42 -62,35l26 -96z"/>
  </g>
  <g>
   <path class="fil10" d="M-17918 20464c13,-24 43,-34 68,-20 24,13 33,43 20,68l-88 -48zm-381 2051l-91 -42 4 -11 7 -23 9 -33 11 -41 12 -48 13 -55 14 -62 16 -67 16 -71 17 -76 18 -80 18 -83 19 -85 19 -87 19 -88 20 -89 19 -89 20 -88 19 -87 19 -85 18 -82 18 -79 17 -76 16 -72 16 -66 14 -61 13 -55 13 -48 11 -41 9 -34 9 -26 9 -21 88 48 -3 7 -7 22 -9 31 -11 39 -12 47 -13 55 -14 60 -15 66 -17 71 -17 76 -18 79 -18 82 -19 85 -19 87 -19 88 -19 88 -20 89 -19 88 -19 87 -19 86 -18 83 -18 79 -17 77 -17 72 -15 67 -15 62 -13 56 -12 49 -11 42 -10 35 -8 27 -8 21zm0 0c-12,26 -42,36 -67,25 -25,-12 -36,-42 -24,-67l91 42z"/>
  </g>
  <g>
   <path class="fil10" d="M-13872 20962c11,-25 40,-37 66,-26 25,11 37,41 26,66l-92 -40zm-202 2077l-94 -35 3 -11 5 -24 6 -33 7 -41 8 -50 8 -56 9 -62 10 -68 10 -73 10 -78 11 -81 11 -84 12 -86 11 -89 12 -89 11 -90 12 -90 12 -90 11 -88 11 -86 12 -84 10 -80 11 -77 10 -73 10 -67 9 -62 8 -56 8 -49 8 -42 6 -34 7 -27 7 -22 92 40 -3 8 -5 22 -6 31 -7 41 -8 48 -8 55 -9 61 -10 67 -10 72 -11 77 -10 81 -11 83 -12 86 -11 88 -12 90 -12 90 -11 90 -12 89 -11 89 -12 86 -11 85 -10 81 -11 77 -10 73 -10 69 -9 63 -8 56 -8 51 -7 43 -7 35 -6 28 -6 22zm0 0c-10,26 -38,39 -64,30 -26,-10 -40,-39 -30,-65l94 35z"/>
  </g>
  <g>
   <polygon class="fil10" points="-13746,20882 -13748,20982 -13760,20981 -13772,20981 -13784,20981 -13797,20980 -13810,20980 -13823,20979 -13837,20979 -13850,20979 -13864,20978 -13879,20978 -13893,20977 -13907,20977 -13922,20976 -13937,20976 -13951,20975 -13966,20975 -13981,20974 -13995,20974 -14010,20974 -14024,20973 -14039,20973 -14053,20973 -14067,20973 -14080,20973 -14094,20973 -14107,20973 -14120,20973 -14132,20973 -14145,20973 -14156,20974 -14168,20974 -14178,20975 -14184,20875 -14172,20875 -14160,20874 -14147,20874 -14134,20874 -14121,20873 -14108,20873 -14094,20873 -14080,20873 -14066,20873 -14051,20873 -14037,20874 -14022,20874 -14008,20874 -13993,20875 -13978,20875 -13963,20875 -13948,20876 -13933,20876 -13919,20877 -13904,20877 -13889,20878 -13875,20878 -13861,20879 -13847,20879 -13833,20880 -13820,20880 -13806,20880 -13793,20881 -13781,20881 -13769,20882 -13757,20882 "/>
  </g>
  <ellipse class="fil11" cx="-17393" cy="12777" rx="79" ry="86"/>
  <ellipse class="fil11" cx="-17261" cy="13094" rx="79" ry="86"/>
  <ellipse class="fil11" cx="-17133" cy="13738" rx="79" ry="86"/>
  <ellipse class="fil11" cx="-17191" cy="13425" rx="79" ry="86"/>
  <ellipse class="fil11" cx="-17116" cy="14063" rx="79" ry="86"/>
  <ellipse class="fil11" cx="-17121" cy="14366" rx="79" ry="86"/>
  <ellipse class="fil11" cx="-17132" cy="14722" rx="79" ry="86"/>
  <ellipse class="fil11" cx="-17217" cy="15058" rx="79" ry="86"/>
  <ellipse class="fil11" cx="-17310" cy="15408" rx="79" ry="86"/>
  <ellipse class="fil11" cx="-15484" cy="12524" rx="79" ry="86"/>
  <ellipse class="fil11" cx="-15587" cy="12766" rx="79" ry="86"/>
  <ellipse class="fil11" cx="-15719" cy="13083" rx="79" ry="86"/>
  <ellipse class="fil11" cx="-15847" cy="13727" rx="79" ry="86"/>
  <ellipse class="fil11" cx="-15789" cy="13414" rx="79" ry="86"/>
  <ellipse class="fil11" cx="-15864" cy="14052" rx="79" ry="86"/>
  <ellipse class="fil11" cx="-15859" cy="14355" rx="79" ry="86"/>
  <ellipse class="fil11" cx="-15848" cy="14711" rx="79" ry="86"/>
  <ellipse class="fil11" cx="-15763" cy="15047" rx="79" ry="86"/>
  <ellipse class="fil11" cx="-15670" cy="15397" rx="79" ry="86"/>
  <path class="fil8 str11" d="M-26272 10179l13067 -7203c252,-168 505,-335 757,-503 -229,303 -514,557 -797,812l40 -309"/>
  <ellipse class="fil0" cx="-20573" cy="6998" rx="352" ry="330"/>
  <polygon class="fil1" points="13026,19752 12631,19910 12567,19719 "/>
  <polygon class="fil1" points="11660,20300 12077,20176 12009,19953 "/>
  <path class="fil2 str12" d="M8754 9769c-70,15 -141,29 -211,44 0,0 -209,-39 -231,-61 -21,-23 -14,-11 -60,-58 -47,-48 -68,-86 -116,-73 -49,12 -92,18 -120,-4 -28,-21 -137,-89 -186,-104 -49,-16 -88,-30 -124,-41 -36,-11 -96,-85 -111,-136 -16,-51 -29,-50 -26,-126 4,-75 -17,-192 -17,-192 0,0 78,-202 95,-223 16,-21 90,-81 90,-81 0,0 73,28 74,-60 2,-88 -11,-165 -11,-165 25,-95 50,-189 75,-284 0,0 8,-10 47,-53 38,-43 155,-114 155,-114 0,0 53,-4 70,-41 18,-37 82,-155 82,-155 53,-26 106,-52 160,-78 0,0 53,-54 119,-47 67,7 186,4 237,32 50,28 89,58 89,58 17,23 35,46 52,68 0,0 2,19 67,-21 64,-40 134,-52 126,-42 0,0 266,17 298,53 33,37 55,81 55,81 0,0 58,68 94,123 35,55 87,123 103,146 15,24 -1,-28 64,83 64,111 78,322 78,322 0,0 81,-76 -13,90 -95,165 -128,179 -204,270 -76,91 -163,146 -276,270 -112,124 -160,171 -240,275 -81,104 -85,102 -122,150 -38,49 -31,54 -65,84 -34,29 -97,10 -97,10z"/>
  <path class="fil12" d="M10003 12823c-731,1481 -660,2992 -768,4522 819,38 1639,77 2458,116 277,-995 520,-2016 522,-3209 -92,-455 -77,-963 -168,-1418 -807,-59 -1238,48 -2044,-11z"/>
  <ellipse class="fil0" transform="matrix(1.32801 0.0484401 -0.0484401 1.32801 11017.5 11131.5)" rx="1673" ry="1568"/>
  <path class="fil5 str13" d="M8767 9876c-109,-62 -79,-237 -123,-354 -69,-183 47,-351 132,-477 17,-25 325,-312 362,-351 46,-47 434,-99 457,-78 51,46 215,11 220,88 2,33 -14,65 -21,98 0,0 -279,229 -333,311 -53,82 -470,604 -470,604 -74,53 -144,204 -224,159z"/>
  <path class="fil2" d="M8917 12092c-66,-18 -142,4 -202,-26 -102,-51 -201,-118 -270,-208 -57,-74 -89,-171 -91,-264 -1,-89 -117,-138 -83,-220 36,-86 -14,-88 -17,-181 -2,-47 43,-144 2,-167 -46,-26 -62,-62 -74,-113 -32,-127 -70,-219 -24,-342 6,-16 154,-516 157,-571 4,-90 98,-255 144,-300 46,-45 267,-213 295,-229 0,0 223,-2 207,-123 -15,-121 229,-374 229,-374 55,-10 110,-37 165,-29 72,10 108,-19 174,-50 127,-58 80,112 155,-9 76,-121 6,-83 87,-137 81,-54 65,-65 163,-88 98,-23 180,-38 239,-40 59,-2 83,5 138,-24 54,-30 208,-153 289,-187 82,-35 135,7 135,7 69,35 136,78 208,107 52,21 107,45 163,41 104,-7 201,-49 302,-73 0,0 69,-58 111,20 42,77 272,132 272,132 27,42 35,104 79,127 64,33 143,16 214,24 0,0 297,179 299,238 2,59 23,98 23,98 0,0 21,149 110,110 89,-38 192,-124 296,-80 104,43 144,81 171,187 27,105 47,104 46,175 -5,208 92,330 -221,381 -66,11 -15,-75 -82,-86 0,0 -103,45 -170,-59 -66,-104 -323,-135 -323,-135 0,0 -23,-49 -52,-151 -29,-103 -208,-127 -208,-127 -76,-66 12,-55 -86,-77 -60,-14 -173,66 -235,70 -231,15 7,42 -181,72 -137,22 -153,10 -160,20 -44,68 5,259 -59,308 -30,23 -317,-117 -315,-80 12,179 -8,138 -85,141 -39,1 -63,-23 -159,67 -99,91 -45,213 -138,264 -92,50 -249,-33 -249,-33 -33,12 -75,-55 -107,-41 -65,28 -125,119 -174,169 -58,61 -69,-50 -121,16 -37,47 -211,4 -265,28 -30,14 -64,188 -97,188 -88,-1 45,54 -43,59 -49,3 -66,176 -110,199 -511,279 199,917 -193,1116 -52,26 140,244 152,297 134,588 -131,346 -356,10 -16,-24 -46,-40 -75,-47z"/>
  <path class="fil6 str14" d="M10926 11708c475,879 1534,890 1751,-312 -599,345 -681,539 -1751,312z"/>
  <polygon class="fil1" points="8529,19795 9018,19879 9144,19686 8611,19607 "/>
  <path class="fil1" d="M10069 20154l-356 -78c0,0 51,-259 69,-265 18,-6 287,343 287,343z"/>
  <path class="fil3" d="M8939 19473c-63,1724 -1058,3389 -1490,4945 72,23 132,80 214,109 69,24 160,19 237,49 717,-1433 1769,-3122 2012,-5003 -356,-37 -617,-63 -973,-100z"/>
  <path class="fil3" d="M12488 19374c238,695 283,1549 318,2283 57,1193 100,2171 -49,3356 -212,-4 -260,11 -466,-20 133,-1074 -114,-2066 -191,-3146 -54,-757 -99,-1506 -361,-2219 250,-85 499,-169 749,-254z"/>
  <path class="fil3" d="M7449 24418c-361,347 -613,706 -822,1070 296,201 626,231 980,141 48,-211 97,-422 234,-642 62,-99 77,-240 59,-411 -150,-53 -301,-105 -451,-158z"/>
  <path class="fil3" d="M12291 24993c4,4 462,17 466,20 228,208 570,216 856,414 62,42 90,74 84,112 -11,63 -1,122 -10,185 -491,-18 -1025,-46 -1517,-64 41,-222 81,-445 121,-667z"/>
  <ellipse class="fil0" transform="matrix(1.32801 0.0484401 -0.0484401 1.32801 14383.6 16769.4)" rx="222" ry="203"/>
  <path class="fil7" d="M9423 17246c-61,-4 -122,-8 -183,-11 -369,413 -1043,2294 -711,2560 523,-46 1126,27 1540,359 152,-167 315,-427 532,-490 169,-50 325,138 476,228 203,122 388,272 583,408 322,-205 629,-437 1119,-530 81,-16 164,-12 247,-18 -164,-367 -487,-1243 -676,-1506 -92,-130 -478,-830 -603,-929 -764,111 -1573,138 -2324,-71z"/>
  <path class="fil8 str15" d="M9597 18106c-180,267 -281,357 -394,662 -45,123 -186,313 -236,441"/>
  <path class="fil8 str16" d="M10205 18300c-59,235 -175,421 -246,673 -36,130 -96,370 -192,472l-4 9"/>
  <path class="fil8 str17" d="M11100 17988c22,166 84,482 151,623 97,203 125,509 243,730 9,16 20,75 9,29"/>
  <path class="fil8 str18" d="M11751 18040c41,48 338,631 356,693 23,86 55,372 143,439l4 7"/>
  <path class="fil8 str19" d="M10141 11992c153,-137 167,-218 385,-316 10,-5 45,-31 53,-32"/>
  <path class="fil8 str20" d="M9977 11477c116,-61 137,-108 287,-135 8,-1 33,-12 39,-11"/>
  <path class="fil8 str21" d="M9850 11000c114,-33 141,-70 277,-66 7,0 31,-5 36,-3"/>
  <g>
   <path class="fil10" d="M13110 11313l43 -143c40,12 62,53 50,93 -11,39 -53,62 -93,50zm-176 -189l0 0 10 -2 10 0 10 -1 9 0 10 0 9 0 8 1 9 0 8 1 9 2 7 1 8 2 7 2 7 2 7 2 7 3 6 2 6 2 6 3 5 2 5 2 5 3 5 2 5 2 5 2 5 2 5 2 5 2 5 2 5 1 5 2 6 2 -43 143 -8 -3 -8 -2 -8 -3 -7 -3 -7 -2 -7 -3 -6 -3 -6 -2 -6 -3 -5 -2 -5 -2 -4 -2 -5 -2 -4 -2 -4 -1 -3 -1 -3 -2 -3 -1 -3 0 -3 -1 -3 -1 -3 -1 -3 0 -4 0 -3 -1 -4 0 -4 0 -5 0 -5 0 -6 0 -5 1 -7 1 0 0 -19 -148zm-51 8l11 -5 8 -3 6 -1 4 0 4 -1 3 0 3 0 3 0 2 0 1 0 3 0 1 0 2 0 1 0 1 0 2 1 1 0 1 0 1 0 1 0 1 0 0 0 1 0 0 0 0 0 0 0 0 0 -1 0 0 0 -2 0 -3 0 -4 1 19 148 -4 0 -4 0 -3 0 -2 0 -2 0 -2 0 -1 0 -2 0 -1 0 -2 0 -1 0 0 -1 -2 0 -1 0 0 0 -1 0 -1 0 0 0 -1 0 0 0 0 0 0 0 0 0 0 0 1 0 2 0 2 0 3 0 3 -1 5 -1 7 -2 11 -5 -74 -130zm0 0l74 130c-37,20 -82,7 -103,-28 -20,-36 -7,-82 29,-102z"/>
  </g>
  <g>
   <path class="fil10" d="M13113 11003l18 -150c41,5 70,43 65,84 -5,41 -42,70 -83,66zm-198 -161l0 0 10 -2 9 -2 10 -2 8 -1 9 -1 9 -1 8 0 8 -1 8 0 8 0 8 0 7 1 7 1 7 0 7 1 6 1 6 2 6 1 6 1 5 1 6 1 5 2 5 1 5 1 5 1 5 1 5 1 5 1 6 1 5 1 6 1 6 0 -18 150 -8 -1 -8 -2 -8 -1 -8 -1 -7 -1 -6 -2 -7 -1 -6 -1 -5 -2 -6 -1 -5 -1 -4 -1 -5 -1 -4 -1 -4 -1 -4 -1 -3 0 -4 -1 -3 0 -3 0 -3 -1 -4 0 -3 0 -4 0 -4 0 -4 1 -5 0 -5 1 -5 1 -6 1 -6 1 -6 1 0 0 -35 -146zm-46 12l9 -5 7 -3 4 -1 4 -1 4 -1 2 0 3 0 2 -1 2 0 2 0 1 0 2 0 1 -1 1 0 2 0 1 0 1 0 1 0 1 0 1 0 1 0 0 0 1 0 0 0 1 0 0 0 0 0 -1 0 0 0 -2 0 -1 0 -4 1 35 146 -5 1 -2 1 -3 0 -2 0 -1 1 -3 0 -1 0 -1 0 -1 0 -1 0 -2 0 0 0 -1 0 -1 0 -1 0 -1 0 0 0 -1 0 -1 0 0 0 0 0 0 0 0 0 0 0 1 0 1 0 1 0 2 -1 3 0 4 -1 6 -3 9 -5 -80 -127zm0 0l80 127c-35,23 -82,12 -104,-23 -22,-35 -11,-82 24,-104z"/>
  </g>
  <g>
   <path class="fil10" d="M13022 10620l36 -146c40,10 65,51 55,91 -10,41 -51,65 -91,55zm-179 -181l0 0 9 -2 9 -2 10 -1 9 -1 9 -1 9 0 8 0 9 0 8 1 8 1 8 1 8 1 7 2 7 2 7 2 7 2 6 2 6 2 5 2 6 2 5 2 5 2 5 2 5 2 5 2 5 2 5 2 4 1 5 2 5 2 6 1 5 2 -36 146 -9 -2 -8 -3 -7 -2 -8 -2 -7 -3 -6 -2 -7 -3 -6 -2 -5 -2 -5 -2 -5 -2 -5 -2 -4 -2 -4 -1 -4 -1 -3 -2 -4 -1 -2 0 -3 -1 -3 -1 -2 0 -3 -1 -2 0 -3 0 -2 0 -3 0 -3 0 -4 0 -4 1 -4 0 -4 1 -6 1 0 0 -34 -147zm-54 18l11 -9 10 -5 8 -2 5 -1 4 -1 4 -1 3 0 2 0 3 -1 2 0 2 0 2 0 1 0 1 0 2 0 1 0 1 0 1 0 1 0 1 0 1 0 0 0 1 0 0 0 0 0 0 0 -1 0 -1 0 0 1 -3 0 -4 0 -4 1 34 147 -5 1 -5 1 -3 0 -2 0 -2 0 -2 1 -2 0 -1 0 -1 -1 -1 0 -2 0 -1 0 -1 0 0 0 -1 0 -1 0 -1 0 0 0 0 0 0 0 0 0 0 0 1 0 1 0 1 0 1 0 3 0 4 -1 4 -1 7 -3 9 -4 11 -8 -99 -114zm0 0l99 114c-31,27 -78,24 -106,-7 -27,-32 -24,-80 7,-107z"/>
  </g>
  <g>
   <ellipse class="fil6" transform="matrix(1.48117 -0.230802 0.204605 1.31305 10696 10654.6)" rx="179" ry="233"/>
   <ellipse class="fil9" transform="matrix(1.31305 -0.204605 0.204605 1.31305 10740.6 10693.8)" rx="165" ry="159"/>
  </g>
  <g>
   <ellipse class="fil6" transform="matrix(1.49258 -0.139006 0.123228 1.32317 12354.5 10419.3)" rx="179" ry="233"/>
   <ellipse class="fil9" transform="matrix(1.32317 -0.123228 0.123228 1.32317 12396.6 10461.2)" rx="165" ry="159"/>
  </g>
  <g>
   <path class="fil10" d="M11395 11032c-21,18 -53,14 -70,-7 -18,-21 -14,-53 7,-70l63 77zm556 -194l-31 96 -8 -3 -10 -2 -11 -1 -14 -2 -14 0 -16 -1 -17 0 -18 1 -19 1 -19 1 -20 2 -20 3 -21 2 -21 3 -21 4 -21 4 -21 4 -21 4 -20 5 -20 5 -20 5 -19 6 -19 5 -18 6 -16 6 -16 6 -15 6 -13 6 -12 6 -10 6 -8 5 -7 5 -63 -77 13 -10 14 -9 14 -8 16 -8 16 -7 18 -8 18 -7 19 -7 20 -6 20 -6 21 -6 22 -6 22 -5 22 -5 22 -5 23 -5 22 -4 23 -3 22 -4 23 -3 22 -2 22 -2 21 -2 21 -1 20 -1 20 0 19 1 18 1 17 1 17 3 16 3 16 4zm0 0c26,9 40,37 32,63 -8,27 -37,41 -63,33l31 -96z"/>
  </g>
  <g>
   <path class="fil10" d="M11445 11300c-22,17 -54,12 -70,-10 -17,-22 -13,-53 9,-70l61 80zm564 -172l-34 94 -8 -3 -10 -2 -12 -2 -13 -2 -15 -2 -16 -1 -17 0 -18 0 -18 0 -20 1 -20 1 -20 1 -21 2 -21 3 -22 2 -21 3 -21 4 -21 3 -21 4 -20 5 -20 4 -20 5 -18 5 -18 5 -17 5 -16 6 -15 5 -14 6 -12 5 -10 6 -9 5 -6 4 -61 -80 14 -9 14 -8 15 -8 16 -7 16 -7 18 -7 19 -6 19 -6 20 -6 21 -5 21 -5 22 -5 22 -5 22 -4 23 -4 22 -4 23 -3 23 -3 23 -2 22 -2 22 -2 22 -1 22 -1 21 0 20 0 20 0 19 2 18 1 18 3 16 3 16 4 16 5zm0 0c26,9 39,38 30,64 -10,26 -38,39 -64,30l34 -94z"/>
  </g>
  <g>
   <path class="fil10" d="M8574 21738c-27,-6 -44,-33 -37,-60 6,-27 33,-43 60,-37l-23 97zm600 99l-33 94 -19 -7 -19 -6 -18 -7 -19 -7 -19 -6 -18 -7 -18 -7 -19 -7 -18 -6 -18 -7 -18 -7 -18 -6 -17 -7 -18 -7 -18 -6 -17 -6 -18 -7 -17 -6 -17 -6 -18 -6 -17 -6 -17 -6 -18 -6 -17 -5 -17 -6 -17 -5 -17 -5 -17 -5 -18 -5 -17 -4 -17 -4 -17 -5 23 -97 19 5 18 4 18 5 18 5 18 5 18 6 18 5 18 6 18 5 18 6 17 6 18 6 18 7 18 6 18 6 17 7 18 6 18 7 18 6 18 7 18 7 18 6 18 7 18 7 18 6 18 7 18 7 18 6 19 7 18 7 19 6 18 7zm0 0c27,9 40,37 31,63 -9,26 -37,40 -64,31l33 -94z"/>
  </g>
  <g>
   <path class="fil10" d="M8843 21767c14,-24 45,-32 68,-18 24,14 32,45 18,69l-86 -51zm-751 1894l-89 -46 7 -14 11 -23 15 -31 17 -39 21 -45 23 -51 25 -57 28 -62 30 -66 31 -70 33 -73 34 -76 35 -78 36 -80 36 -81 37 -81 36 -81 36 -81 36 -79 35 -78 34 -76 33 -73 31 -69 30 -65 28 -61 25 -56 24 -51 20 -44 18 -37 15 -31 11 -23 9 -16 86 51 -6 11 -11 21 -14 30 -17 37 -21 44 -23 50 -25 56 -28 60 -30 66 -31 69 -33 73 -34 75 -35 78 -35 79 -37 81 -36 81 -37 82 -36 80 -36 80 -35 78 -34 76 -32 74 -32 70 -30 66 -27 62 -26 56 -23 52 -21 45 -18 39 -14 31 -12 24 -8 17zm0 0c-12,25 -43,34 -67,22 -25,-13 -34,-43 -22,-68l89 46z"/>
  </g>
  <g>
   <path class="fil10" d="M12712 22481c-6,-27 11,-54 38,-60 27,-6 53,11 59,38l-97 22zm50 2033l-86 -53 2 -4 4 -20 6 -30 5 -40 4 -47 5 -54 4 -61 3 -66 4 -71 3 -76 2 -79 3 -82 2 -85 1 -86 2 -88 1 -89 1 -89 0 -88 0 -86 0 -85 0 -83 0 -80 -1 -76 -1 -72 -1 -67 -2 -62 -1 -55 -2 -49 -2 -41 -2 -33 -3 -24 -1 -12 97 -22 4 22 2 28 3 35 2 43 2 49 1 57 2 62 1 67 1 73 1 76 0 80 0 83 0 86 0 87 0 88 -1 89 -1 89 -2 88 -1 87 -2 85 -3 83 -2 80 -3 76 -4 72 -4 67 -4 62 -4 56 -5 49 -5 43 -7 36 -7 30 -11 27zm0 0c-15,23 -46,31 -69,16 -24,-14 -31,-45 -17,-69l86 53z"/>
  </g>
  <g>
   <polygon class="fil10" points="12838,22371 12839,22470 12828,22470 12816,22470 12803,22470 12791,22470 12777,22470 12764,22471 12751,22471 12737,22471 12723,22471 12709,22471 12694,22471 12680,22471 12665,22471 12651,22471 12636,22471 12621,22471 12606,22471 12592,22471 12577,22471 12563,22472 12549,22472 12534,22472 12520,22473 12507,22473 12493,22473 12480,22474 12467,22475 12455,22475 12443,22476 12431,22477 12420,22477 12409,22478 12400,22379 12412,22378 12424,22377 12436,22377 12449,22376 12462,22375 12476,22375 12490,22374 12504,22374 12518,22373 12532,22373 12547,22372 12561,22372 12576,22372 12591,22372 12606,22372 12620,22371 12635,22371 12650,22371 12665,22371 12680,22371 12694,22371 12708,22371 12723,22371 12737,22371 12750,22371 12764,22371 12777,22371 12790,22371 12803,22371 12815,22371 12827,22371 "/>
  </g>
  <g>
   <ellipse class="fil11" transform="matrix(0.535032 0.10798 -0.107291 0.987549 11929 13806.5)" rx="79" ry="86"/>
   <ellipse class="fil11" transform="matrix(0.535032 0.10798 -0.107291 0.987549 11958.5 14057.2)" rx="79" ry="86"/>
   <ellipse class="fil11" transform="matrix(0.535032 0.10798 -0.107291 0.987549 11995.2 14385.1)" rx="79" ry="86"/>
   <ellipse class="fil11" transform="matrix(0.535032 0.10798 -0.107291 0.987549 11994.8 15037.4)" rx="79" ry="86"/>
   <ellipse class="fil11" transform="matrix(0.535032 0.10798 -0.107291 0.987549 11997.2 14721.5)" rx="79" ry="86"/>
   <ellipse class="fil11" transform="matrix(0.535032 0.10798 -0.107291 0.987549 11968.7 15361.1)" rx="79" ry="86"/>
   <ellipse class="fil11" transform="matrix(0.535032 0.10798 -0.107291 0.987549 11933.7 15661.1)" rx="79" ry="86"/>
   <ellipse class="fil11" transform="matrix(0.535032 0.10798 -0.107291 0.987549 11889.5 16012.7)" rx="79" ry="86"/>
   <ellipse class="fil11" transform="matrix(0.535032 0.10798 -0.107291 0.987549 11807.2 16336.5)" rx="79" ry="86"/>
   <ellipse class="fil11" transform="matrix(0.535032 0.10798 -0.107291 0.987549 11720.1 16672.7)" rx="79" ry="86"/>
  </g>
  <path class="fil8 str22" d="M23998 14081l14903 703c303,-10 606,-21 909,-32 -354,138 -729,206 -1104,275l195 -243"/>
  <g>
   <ellipse class="fil11" transform="matrix(-0.759027 0.0607785 0.0638257 0.993791 10964.9 13813.3)" rx="79" ry="86"/>
   <ellipse class="fil11" transform="matrix(-0.759027 0.0607785 0.0638257 0.993791 10901.7 14060.7)" rx="79" ry="86"/>
   <ellipse class="fil11" transform="matrix(-0.759027 0.0607785 0.0638257 0.993791 10821.6 14384.3)" rx="79" ry="86"/>
   <ellipse class="fil11" transform="matrix(-0.759027 0.0607785 0.0638257 0.993791 10764.9 15034.5)" rx="79" ry="86"/>
   <ellipse class="fil11" transform="matrix(-0.759027 0.0607785 0.0638257 0.993791 10789.3 14719.4)" rx="79" ry="86"/>
   <ellipse class="fil11" transform="matrix(-0.759027 0.0607785 0.0638257 0.993791 10773.2 15359.4)" rx="79" ry="86"/>
   <ellipse class="fil11" transform="matrix(-0.759027 0.0607785 0.0638257 0.993791 10796 15661.6)" rx="79" ry="86"/>
   <ellipse class="fil11" transform="matrix(-0.759027 0.0607785 0.0638257 0.993791 10827.1 16015.9)" rx="79" ry="86"/>
   <ellipse class="fil11" transform="matrix(-0.759027 0.0607785 0.0638257 0.993791 10914 16345.9)" rx="79" ry="86"/>
   <ellipse class="fil11" transform="matrix(-0.759027 0.0607785 0.0638257 0.993791 11006.7 16688.7)" rx="79" ry="86"/>
  </g>
  <path class="fil4" d="M9245 10874c0,0 -83,-72 -107,-75 -24,-4 -70,-3 -88,3 -17,6 -62,11 -82,37 -21,25 -25,7 -56,70 -61,125 21,508 122,589 17,14 70,62 94,76 23,14 71,45 90,59 19,14 87,38 87,38 22,-4 68,11 66,-11 -20,-265 -84,-524 -126,-786z"/>
  <path class="fil0" d="M9888 13549c245,1417 1269,2900 4262,3363 73,-47 -15,-282 58,-329 -1080,114 -3371,-1263 -3481,-2773 -47,-647 -736,-708 -839,-261z"/>
  <ellipse class="fil0" transform="matrix(1.32801 0.0484401 -0.0484401 1.32801 8465.16 17973.1)" rx="222" ry="203"/>
 </g>
</svg>
