<svg xmlns="http://www.w3.org/2000/svg" xmlns:xlink="http://www.w3.org/1999/xlink" width="1920" height="1080" viewBox="0 0 1920 1080">
  <defs>
    <style>
      .cls-1 {
        clip-path: url(#clip-Web_1920_17);
      }

      .cls-2 {
        fill: #a6c57f;
      }
    </style>
    <clipPath id="clip-Web_1920_17">
      <rect width="1920" height="1080"/>
    </clipPath>
  </defs>
  <g id="Web_1920_17" data-name="Web 1920 – 17" class="cls-1">
    <path id="Path_324" data-name="Path 324" class="cls-2" d="M173.1-721.873c13.5,21.008,18,30.184,28.1,56.5,3.8,9.9,2.9,23.3-3.3,49.5-2.9,12.4-2.6,12.114-6,6.64-8.2-13.2-20-26.119-26.8-29.379l-2-1.006-.1,1.731c0,.926,2.1,6,4.6,11.269,13.7,28.654,19.6,48.012,16.5,53.807-.4.765-1.1-1.368-1.9-5.634-4.7-24.992-17.9-50.91-35.4-69.825-4.9-5.272-11.1-10.625-14.2-12.275a2.825,2.825,0,0,0-2.5-.4c-1.3.523-.4,3.1,5.9,16.138,8.3,17.024,18.1,42.1,16.7,42.66-.2.081-1.2-1.409-2.2-3.34-9.1-18.07-30-41.573-36.8-41.573-1.2,0-.4,3.864,1.7,8.049,3.4,6.761,9.7,20.283,12,25.757,2.3,5.312,3.6,8.934,6.6,17.708,3.2,9.3,7,30.264,6.9,37.428v4.226l-2.4-4.427c-8.7-16.3-23.7-29.017-44.8-37.87-7.6-3.22-10-3.944-18.5-5.634-9.1-1.851-10.1-2.173-15.7-5.151a116.935,116.935,0,0,0-31.4-11.067,112.084,112.084,0,0,0-12.5-2.052c-2.4,0-2.6.081-1.5.845.6.443,6.5,3.139,13.2,5.956,14.4,6.037,23,11.027,32.6,18.955a83.163,83.163,0,0,1,24.7,32.6c3.7,8.894,3.1,9.337-1.6,1.288-9.5-16.42-30.1-32.115-53.1-40.446-8.7-3.179-29.9-7.445-29.9-6,0,.644,3.8,2.455,14.4,6.922,12.1,5.071,19.9,9.417,28.1,15.776,13.8,10.625,22.5,22.416,28,37.428,1.3,3.743,4.4,16.863,4.5,18.915,0,.644-1.2.724-10.5.724H54v13.683H1280v-13.683h-32.8l-.6-3.3c-2.5-15.293-4.1-23.141-5.7-28.493a52.5,52.5,0,0,1-1.9-8.009c0-.966,1.8-6.479,4-12.275,6.4-17.064,6.9-19.64,3.5-17.668-1.7.966-7.5,7.727-10.4,11.993-1.2,1.771-2.5,3.5-2.8,3.823s-1.6-1.288-2.9-3.622c-4.9-8.733-11.9-16.9-14.4-16.9-1.4,0-1.2,4.588.5,11.269.9,3.22,2.7,10.665,4,16.621l2.4,10.745-2.9,6.962a112.469,112.469,0,0,0-4.6,13.6l-1.8,6.6-1.2-5.031a135.593,135.593,0,0,0-5.9-18.311c-1.9-5.272-2.5-8.733-3-19.116-.8-17.829-3-29.419-6-31.753-1.2-.926-1.3-.966-2.2-.2-2,1.489-6.3,14.931-6.3,19.559,0,1.811-.2,1.972-2,1.73-1.9-.241-2-.08-2,3.1l-.1,3.34-1.8-2.133a11.293,11.293,0,0,0-3.5-2.817c-1.5-.6-1.6-.443-1.6,1.972,0,1.409,1.2,7.123,2.7,12.637,2.4,9.256,2.6,11.51,2.7,27.849l.1,17.828H1175v-14.206c0-32.518-3.4-56.625-8-56.625-.5,0-1.5.845-2.2,1.891-.7,1.087-1.4,1.61-1.6,1.207-.6-1.127-2-.765-3.2.8-2.6,3.864-6,19.76-8.1,38.756-.6,5.634-1.2,10.3-1.4,10.383-.3.161-7.1-14.247-9-19.358-1.9-5.031-2.9-2.7,9.7-24.227,8.3-14.367,11.6-21.33,10.4-21.813-1.3-.523-4.2,1.288-9.1,5.8-4.7,4.306-14.6,14.891-16.1,17.225l-.8,1.207-.7-1.61c-1.1-2.415-1-19.036.1-24.348a119.1,119.1,0,0,1,3.6-11.47c4.7-12.6,4.4-13.925-2-8.572-7.2,6.157-13.4,15.857-16.7,26.481-1.8,5.634-1.8,25.8,0,33.041l1.3,5.514-3.3,5.554c-3.8,6.56-3.6,6.721-7.1-4.467-1.9-6.157-2.3-9.1-2.2-19.72,0-11.591.2-13,2.7-19.519,4-10.061,4.2-10.906,2.9-11.228-.8-.2-.9-.926-.3-2.455,1.5-3.823-.3-3.662-5.4.4-9.2,7.405-17.5,23.825-17.5,34.973,0,2.093-.2,3.7-.5,3.622-.7-.322-7.7-11.188-9.5-15.011-1-1.932-2.2-3.662-2.7-3.823-.6-.121-3.6-3.421-6.8-7.284-10.4-12.717-26-27.689-29.2-28.091-1.8-.2-1.7,2.535.2,6.56.9,1.771,4.9,8.975,9,16.017,16.7,28.493,19.4,34.128,18.6,38.112l-.6,3.018-1.3-2.012a278.529,278.529,0,0,0-17.5-23.221c-5-5.8-6.6-8.17-7.1-10.826-.7-3.3-2.2-7.526-3.2-8.934-1-1.368-3.2-.684-4.4,1.409l-1.3,2.093-2.3-1.892a15.176,15.176,0,0,0-3.5-2.133c-1.7-.4-.5,4.789,2.1,9.3,1.1,1.932,1.8,3.823,1.6,4.185-.5.644-2.9,15.9-4.5,28.413l-.8,6.439-.2-6.037c-.2-8.612-1.9-28.976-3.1-37.025-1.8-12.154-4.1-18.754-6.5-18.754a3.416,3.416,0,0,0-2.2,1.69c-1.4,1.892-4.3,11.832-4.3,14.609,0,1.368-.3,1.771-1.4,1.61-1.8-.282-2.2.282-4,5.151-3,8.371-5.9,29.822-7.3,53.646l-.7,12.878-1.8-3.622c-8.8-18.11-11.3-27.286-11.2-42.257,0-11.631.2-12.959,2.7-19.519,3.8-9.538,4.2-11.269,2.9-11.269-3,0-11.6,9.86-15.1,17.305-3.8,8.049-4.5,11.752-4.6,22.376v10.544l-2.2-4.91c-4.5-9.82-12.1-20.283-15-20.686-2.2-.282-1.7,2.737,4.6,28.292.5,1.972.8,3.662.6,3.743s-.9-.926-1.5-2.214a69.787,69.787,0,0,0-10.5-13.6,17.418,17.418,0,0,1-5-8.21c-4.1-12.516-12.6-27.849-21.5-38.675-10-12.234-21.7-20.927-19.4-14.569.3,1.046,2.8,6.52,5.5,12.154,6.1,12.959,10.4,23.181,12,28.373l1.1,4.025-3.5,4.628a142.321,142.321,0,0,0-12.2,18.915c-4.1,7.244-4,6.922,2.6-10.584,4.7-12.556,5.9-17.305,4.6-17.869-1.4-.563-8.9,7.969-15.2,17.386-4.1,6.2-4,5.715,2.6-12.275,5.4-14.408,6.9-20.525,5.1-20.525-2.3,0-10.6,9.659-17.6,20.525-12.4,19.2-20.6,40.245-23.2,60.086l-.7,5.111h-18l.7-2.938a201.138,201.138,0,0,1,7.1-20.2c.9-2.012,2.5-5.715,3.6-8.25,3.4-8.009,10.7-21.853,17-32.6,1.1-1.892,2.9-4.87,3.9-6.64s3-5.111,4.4-7.445c6.2-10.5,8-15.937,5.4-15.615-3.2.362-17,13.361-27.4,25.6l-4.9,5.8-1.7-4.467c-1.6-4.145-4.2-7.646-5.3-7.2-.2.081-.9,3.461-1.5,7.526-2.2,15.374-5.3,22.054-27.6,58.476-4,6.56-5.2,7.969-6.6,7.969a8.423,8.423,0,0,1-1.8-.121c0-.08,2.2-3.944,4.9-8.572,13-22.135,20.4-38.112,23-50.065,1.6-6.761,1.4-18.835-.4-23.342-2-5.312-4.3-8.25-6-7.566-.4.121-1,3.461-1.5,7.405a76.1,76.1,0,0,1-9,28.735l-2,3.823.6-4.829c1.1-8.975-3.4-22.336-7.5-22.336-1,0-2.1,4.266-2.1,8.451-.1,9.7-8.1,28.775-19.5,46.684l-1.4,2.213v-2.415c-.4-9.7-3.5-26-6.7-35.416A133.867,133.867,0,0,0,760-622.508c-10-12.234-21.7-20.927-19.4-14.569.3,1.046,2.8,6.52,5.5,12.154,9.5,20.2,13.1,30.023,16.4,44.632,2.5,11.269,3.5,27.608,2.5,39.883-.5,6.077-.9,11.55-1,12.154,0,1.006-.4,1.127-3.5,1.127-3.5,0-3.5,0-3-1.489,2.4-7.164,3.3-35.053,1.5-47.851a159.433,159.433,0,0,0-46.3-90.994c-7.4-7.244-15.3-13-17.7-13-2.3,0-.6,4.749,7,19.72,9,17.708,13.7,28.373,17.5,39.4a75.781,75.781,0,0,1,2.4,7.647,54.014,54.014,0,0,1-3.5-4.789c-8.1-11.792-19.6-24.147-25.7-27.447l-3.2-1.731-.3,1.811a7.494,7.494,0,0,0,.7,4.024c.5,1.207,3.2,6.922,6,12.677,8.9,18.714,12.7,28.654,16,41.251,2.6,9.739,5.2,26.6,5,31.794l-.1,2.616-.9-1.811c-8.1-15.816-20.2-27.769-37.5-36.864-3.3-1.771-5.4-3.26-5.4-3.9a1.367,1.367,0,0,0-2.4-.845c-.5.523-1.7.241-6-1.368A123.368,123.368,0,0,0,650-602.1c-8.1-1.61-9.6-2.133-14.2-4.588-2.9-1.489-8.8-4.185-13.3-5.956A89.376,89.376,0,0,0,604.2-618c-9.7-1.972-15.2-2.576-15.2-1.69,0,.2,5.3,2.616,11.8,5.312,17.4,7.284,16.5,6.6,15,12.073a35.834,35.834,0,0,1-1.3,4.628c0,.04-3.2-1.087-7-2.535a125.7,125.7,0,0,0-14.6-4.306l-7.7-1.69.5-2.093c.7-2.616-.8-2.817-3.7-.523a6.556,6.556,0,0,1-4.1,1.61c-1.7,0-2,.161-1.4,1.167.4.8-.4,2.133-3.1,4.709-2,1.972-6.1,6.2-8.9,9.377l-5.3,5.836-.7-4.829c-1.6-10.142.4-22.7,5.9-37.186,1.3-3.421,2.2-6.359,1.9-6.56-.8-.563-2.3.161-5.2,2.5-7.1,5.594-13.5,15.736-16.7,26.24-2.1,6.922-2.4,23.141-.5,32.357l1.4,6.842-2.8,4.829c-1.5,2.656-2.9,5.111-3.2,5.433-1.6,1.65-6.2-14.85-6.9-24.751-.7-8.814.5-16.7,4.1-26.24,2.7-7.043,3-8.975,1.6-8.975-.4,0-.4-.926.1-2.052,1.7-3.7-.5-4.065-4.6-.845-10.1,8.049-17.1,22.135-18.9,37.71l-.2,2.012-1.4-2.415c-9.6-16.983-40.4-51.232-46.8-52.037-3.1-.362-1.3,4.1,9.3,22.175,9.3,16.058,12.7,22.094,17,30.667,6.5,12.838,14.7,33.162,15.8,39.239.6,3.059.2,2.415-2.5-4.427-7.6-19.076-22.3-40.969-38.9-57.792-9.6-9.78-15.8-13.885-14.8-9.9.2.885.2,1.61.1,1.529-.2-.04-2.5-1.932-5.3-4.185-2.7-2.254-5.5-4.1-6.1-4.1-.9,0-1,.885-.6,3.1.6,3.381,2.4,6.8,12.8,24.268,12.7,21.29,21.7,40.567,27.9,59.361,1.1,3.3,2,6.278,2,6.52,0,.4-2.4.523-8.9.523h-9l-.5-2.133a66.418,66.418,0,0,1-1.1-6.721c-2.5-20.726-15.4-48.938-31.1-68.215-5-6.077-7.8-8.653-9.5-8.653-1.6,0-.6,3.5,6.2,21.893,3.2,8.854,5.7,16.138,5.5,16.219a19.31,19.31,0,0,1-2.6-3.582c-5.4-8.975-13-18.03-15.8-18.955-1.3-.443-1.4-.081-.8,2.737.4,1.771,3,9.176,5.7,16.46s4.8,13.442,4.6,13.643c-.2.241-.9-.845-1.5-2.375-1.9-4.145-8.7-14.971-13.1-20.847l-3.9-5.232,2.4-6.56c3.2-8.814,4.6-12.154,10.5-24.388,2.7-5.675,5.3-11.591,5.6-13.08.6-2.576.6-2.656-1.2-2.093-4.4,1.449-16.2,13.4-23.4,23.543-6.5,9.256-14.7,25.837-16.7,33.6a13.009,13.009,0,0,1-3.4,5.232,72.944,72.944,0,0,0-11,13.844l-1.9,3.26.5-2.616c.2-1.449,1.5-7.405,2.9-13.281s2.8-11.872,3.1-13.321c.6-2.7-.3-3.662-2.4-2.656-3.1,1.489-12.4,15.454-15.1,22.819a25.92,25.92,0,0,1-1.4,3.059c-.1.04-.2-5.353-.2-12.033,0-13.361-1.1-17.708-6.6-26.32-4.5-7.043-11.2-13.4-13.3-12.6-.3.121.8,3.743,2.4,8.049,5.5,14.931,6.2,25.193,2.5,39.842-2,7.727-10,27.608-11.5,28.292-.3.161-.7-4.185-.8-9.659-.5-20.968-4.1-49.059-7.3-57.067-1.8-4.387-2-4.709-3.5-4.467-.9.121-1.4-.04-1.4-.523,0-1.972-3.3-13.482-4.3-15.172-3.3-5.232-6.3-.483-8.7,13.522a338.112,338.112,0,0,0-3.1,36.623c-.1,9.739-1.3,8.532-2.3-2.415s-4.2-28.131-6.2-33c-1.1-2.817-3.3-4.266-4.9-3.26-2.4,1.57-5,14.327-6.5,31.029-.8,10.262-3,50.145-3,56.1v1.449H259.5l.3-5.111a23.32,23.32,0,0,1,3.2-10.383c5.8-10.544,10.1-20.4,12.5-28.775,1.8-6.2,2.1-18.754.5-22.819-1.5-3.743-4-7.164-5-6.721-.4.2-1.3,3.864-1.9,8.17-1.3,8.894-2.7,13.442-7.4,23.181-3,6.479-3.2,6.721-3.9,4.829-1.2-3.662-.8-7.606,1.2-13.281,3.2-9.337,4.4-19.479,3.1-26.2-1.5-7.164-5.2-13.563-7.5-12.6-.2.081-.9,3.864-1.5,8.411a65.278,65.278,0,0,1-1.8,9.82c-.5,1.409-.7,1.489-1.5.684a1.981,1.981,0,0,0-1.7-.684c-1.3.322-3.1,4.87-3.9,9.94l-.7,4.186-.8-4.829c-1.1-7.888-5.2-15.494-7.7-14.448-.5.2-1.2,3.26-1.6,6.8-1,8.975-2.1,11.51-2.3,5.031-.1-5.232-2.3-21.33-4.1-30.385-3-14.649-6.8-27.648-13.5-45.678-.8-2.294-1.6-8.613-1.9-15.7-.5-11.188-.4-12.275,2-18.915,5.936-16.424-2.6-7.445-2.6-4.628a.951.951,0,0,1-.9,1.006c-1.6,0-9.7-53.486-6.2.483.7,9.538,1,17.426.7,17.506-.2.081-.7-.6-1.1-1.569C199.5-699.577,153.233-752.78,173.1-721.873Zm38.4,98.238a292.569,292.569,0,0,1,3.5,40.325c0,13.039-2,34.973-3.4,37.87-1.1,2.213-1.3,1.61-1.9-8.049a130.877,130.877,0,0,0-2.1-17.1c-1.7-7.365-1.9-7.888-4.8-15.977-1.9-5.473-1.9-5.916-.4-11.47,3.3-11.953,6.6-28.212,6.6-32.276C209-635.145,210.2-632.006,211.5-623.635Zm379.6,23.946C602.5-594.94,612-589.628,610-589.1c-.9.2-1.1,1.207-.9,3.34.3,1.65.1,2.938-.3,2.857-.5-.121-.8-.4-.8-.6,0-.765-4.2-4.387-5.1-4.387-1.5,0-1,4.185,1.8,14.086,2.3,8.411,2.6,11.51,3,28.091l.5,18.593H599v-17.828c0-31.834-3-52.278-7.8-52.922a1.819,1.819,0,0,0-1.7,1.006,11.241,11.241,0,0,1-1.5,1.932c-.7.684-.9.684-.9.081-.1-.845-1.7-.926-2.4-.081-2.4,2.455-6,18.432-7.7,33.806-.6,5.312-1.3,11.188-1.7,13.08l-.6,3.421-2.8-5.836c-1.6-3.22-4-8.572-5.4-11.912l-2.6-6.037,6-10.464c10.7-18.875,13.5-23.5,14.1-23.5C584.3-602.385,587.5-601.178,591.1-599.689Zm42.4,3.5,6.9,5.433L642.1-585a40.083,40.083,0,0,1,1.4,5.876,12.936,12.936,0,0,1-3.3-2.415c-1.7-1.409-5.3-4.024-8-5.836-4.9-3.26-5-3.34-5.6-7.647a42.323,42.323,0,0,0-1.3-5.715c-.3-.765-.2-1.248.3-1.127A65.389,65.389,0,0,1,633.5-596.188Zm25.6,2.133c5.6,2.857,5.7,2.938,4.7,4.507-.6.926-1.4,1.529-1.9,1.409s-.9-.4-.9-.6a46.94,46.94,0,0,0-5.6-4.87C649.4-598.441,650.2-598.562,659.1-594.055ZM91.2-589.708c12.3,7.365,23.4,18.352,29.3,28.976,4.9,8.894,8.5,21.37,8.5,29.62v3.984H111.2l-.6-7.365c-2.3-24.791-13.1-45.316-31.5-59.643-2-1.57-3.7-3.018-3.9-3.22C74.4-598.4,85.8-592.928,91.2-589.708Zm586.1,7.244c16.4,13.281,25.3,29.339,27.4,49.179l.6,6.157H686v-6.4c0-14.327-5.4-30.385-14.5-43.143-3.4-4.668-3.4-4.91-2.3-7.807.6-1.69,1.5-2.9,1.9-2.737C671.5-587.012,674.3-584.919,677.3-582.464Zm247.6,19.72a130.671,130.671,0,0,1,.1,22.537c-.5,5.956-.9,11.349-1,11.953v1.127H906.8l.6-2.535c.4-1.368,1.1-4.87,1.6-7.727,1.9-9.377,5.8-21.893,12.1-38.635.5-1.328.9-2.7,1-3.018C922.6-580.975,924-572.846,924.9-562.744ZM409.4-565.36c5.2,14.81,9.5,30.868,9.6,36.1v2.133H403.3l-.7-2.535c-2.2-9.015-1.4-43.666,1.1-48.374.6-1.127.7-1.046,1.4.8C405.5-576.146,407.4-570.793,409.4-565.36ZM242.7-576.951c-.3.322-.6.2-.6-.241-.1-.443.2-.684.5-.523A.436.436,0,0,1,242.7-576.951ZM1051-571.2c6.7,13.08,16,37.71,16,42.3v1.811l-8.7-.121-8.8-.121-.6-17.305c-.4-9.538-1-20.807-1.3-25.113s-.4-7.727-.2-7.647C1047.7-577.272,1049.3-574.5,1051-571.2ZM633.8-568.9a91.5,91.5,0,0,1,7.2,10.464c2.4,4.306,2.4,4.346.7,9.256a86.272,86.272,0,0,0-2.6,8.934c-1.1,4.427-2.1,5.514-2.1,2.214,0-3.1-3.6-14.891-7-23.1-1.8-4.266-4.7-20.726-3.4-20.726C626.8-581.86,631.1-572.242,633.8-568.9ZM187.6-544.03a121.606,121.606,0,0,1-1.3,13.884c-.5,2.656-.8,3.018-2.6,3.018-1.7,0-1.9-.2-1.4-1.529a61.214,61.214,0,0,0,1.2-9.337c.5-7.043,3-16.9,4.3-16.9C188.1-554.9,188-549.986,187.6-544.03Zm191.7,6.721c.6,10.142.6,10.182-1.5,10.182s-2.1-.08-1.4-7.767c.6-7.123,1.6-12.919,2.1-12.677C378.6-547.491,379-542.863,379.3-537.309Zm571.6,7.244c.1,2.9.1,2.938-2.5,2.938-1.9,0-2.4-.161-2-.724a82.537,82.537,0,0,0,1.2-10.142l.8-9.458,1.2,7.244A87.075,87.075,0,0,1,950.9-530.065Zm-392.4-6.681c2.5,4.709,4.8,8.854,5,9.136.4.4-.9.483-5.2.4l-5.7-.121-1.6-3.018c-1.6-2.857-1.5-3.34.4-9.136a39.147,39.147,0,0,1,2.3-6C553.8-545.439,556-541.495,558.5-536.746Zm575.6-.443c6.1,11.349,6.1,10.061-.3,10.061h-5.5l-1.6-3.22c-1.6-3.1-1.5-3.5.5-9.337,1.2-3.34,2.3-5.916,2.5-5.715C1129.8-545.2,1131.8-541.495,1134.1-537.189Zm-892.3-.523a22.309,22.309,0,0,1-2.8,6.842c-1.9,3.059-2.7,3.743-4.3,3.743-1.3,0-1.7-.2-1.3-.724.4-.563,3.4-5.554,7.1-12.073C241.6-541.776,242.2-540.69,241.8-537.712Z" transform="translate(1061 1545.388)"/>
    <path id="Path_106" data-name="Path 106" class="cls-2" d="M157.7-923.659c-1,.575-11.5,17.323-14.1,22.5-8.6,16.71-11.4,30.316-9.7,46.988,2.7,25.832,10.9,43.922,39.2,85.85,13.5,20.006,18,28.744,28.1,53.81,3.8,9.428,2.9,22.191-3.3,47.141-2.9,11.8-2.6,11.536-6,6.324-8.2-12.571-20-24.874-26.8-27.978l-2-.958-.1,1.648c0,.882,2.1,5.711,4.6,10.731,13.7,27.288,19.6,45.723,16.5,51.242-.4.728-1.1-1.3-1.9-5.366-4.7-23.8-17.9-48.482-35.4-66.5-4.9-5.021-11.1-10.118-14.2-11.689a2.944,2.944,0,0,0-2.5-.383c-1.3.5-.4,2.951,5.9,15.369,8.3,16.212,18.1,40.089,16.7,40.625-.2.077-1.2-1.341-2.2-3.181-9.1-17.208-30-39.591-36.8-39.591-1.2,0-.4,3.679,1.7,7.665,3.4,6.439,9.7,19.316,12,24.529,2.3,5.059,3.6,8.508,6.6,16.863,3.2,8.853,7,28.821,6.9,35.643v4.024l-2.4-4.216c-8.7-15.522-23.7-27.633-44.8-36.065-7.6-3.066-10-3.756-18.5-5.366-9.1-1.763-10.1-2.07-15.7-4.906a120.843,120.843,0,0,0-31.4-10.54A117.288,117.288,0,0,0,15.6-671.4c-2.4,0-2.6.077-1.5.8.6.422,6.5,2.989,13.2,5.672,14.4,5.749,23,10.5,32.6,18.052,11.3,8.815,19.5,19.163,24.7,31.044,3.7,8.47,3.1,8.892-1.6,1.226-9.5-15.637-30.1-30.584-53.1-38.518-8.7-3.028-29.9-7.09-29.9-5.711,0,.613,3.8,2.338,14.4,6.592,12.1,4.829,19.9,8.968,28.1,15.024,13.8,10.118,22.5,21.348,28,35.643,1.3,3.564,4.4,16.059,4.5,18.013,0,.613-1.2.69-10.5.69H54v13.031H1280v-13.031h-32.8l-.6-3.143c-2.5-14.564-4.1-22.037-5.7-27.135a47.992,47.992,0,0,1-1.9-7.627c0-.92,1.8-6.171,4-11.689,6.4-16.25,6.9-18.7,3.5-16.825-1.7.92-7.5,7.359-10.4,11.421-1.2,1.686-2.5,3.334-2.8,3.641s-1.6-1.226-2.9-3.449c-4.9-8.317-11.9-16.1-14.4-16.1-1.4,0-1.2,4.369.5,10.731.9,3.066,2.7,10.156,4,15.829l2.4,10.233-2.9,6.63a103.618,103.618,0,0,0-4.6,12.954l-1.8,6.285-1.2-4.791a124.727,124.727,0,0,0-5.9-17.438c-1.9-5.021-2.5-8.317-3-18.2-.8-16.978-3-28.016-6-30.239-1.2-.881-1.3-.92-2.2-.192-2,1.418-6.3,14.219-6.3,18.626,0,1.725-.2,1.878-2,1.648-1.9-.23-2-.077-2,2.951l-.1,3.181-1.8-2.031a11.222,11.222,0,0,0-3.5-2.683c-1.5-.575-1.6-.422-1.6,1.878,0,1.341,1.2,6.784,2.7,12.034,2.4,8.815,2.6,10.961,2.7,26.522l.1,16.978H1175v-13.529c0-30.967-3.4-53.925-8-53.925-.5,0-1.5.8-2.2,1.8-.7,1.035-1.4,1.533-1.6,1.15-.6-1.073-2-.728-3.2.767-2.6,3.679-6,18.818-8.1,36.908-.6,5.366-1.2,9.811-1.4,9.888-.3.153-7.1-13.567-9-18.435-1.9-4.791-2.9-2.568,9.7-23.072,8.3-13.682,11.6-20.313,10.4-20.773-1.3-.5-4.2,1.226-9.1,5.519-4.7,4.1-14.6,14.181-16.1,16.4l-.8,1.15-.7-1.533c-1.1-2.3-1-18.128.1-23.187a109.5,109.5,0,0,1,3.6-10.923c4.7-12,4.4-13.261-2-8.163-7.2,5.864-13.4,15.1-16.7,25.218-1.8,5.366-1.8,24.567,0,31.466l1.3,5.251-3.3,5.289c-3.8,6.247-3.6,6.4-7.1-4.254-1.9-5.864-2.3-8.662-2.2-18.78,0-11.038.2-12.379,2.7-18.588,4-9.581,4.2-10.386,2.9-10.693-.8-.192-.9-.882-.3-2.338,1.5-3.641-.3-3.488-5.4.383-9.2,7.052-17.5,22.689-17.5,33.305,0,1.993-.2,3.526-.5,3.449-.7-.307-7.7-10.655-9.5-14.3-1-1.84-2.2-3.488-2.7-3.641-.6-.115-3.6-3.258-6.8-6.937-10.4-12.111-26-26.368-29.2-26.752-1.8-.192-1.7,2.415.2,6.247.9,1.686,4.9,8.547,9,15.254,16.7,27.135,19.4,32.5,18.6,36.295l-.6,2.874-1.3-1.916a266.817,266.817,0,0,0-17.5-22.114c-5-5.519-6.6-7.78-7.1-10.31-.7-3.143-2.2-7.167-3.2-8.508-1-1.3-3.2-.651-4.4,1.341l-1.3,1.993-2.3-1.8a15.35,15.35,0,0,0-3.5-2.031c-1.7-.383-.5,4.561,2.1,8.853,1.1,1.84,1.8,3.641,1.6,3.986-.5.613-2.9,15.139-4.5,27.058l-.8,6.132-.2-5.749c-.2-8.2-1.9-27.595-3.1-35.26-1.8-11.574-4.1-17.86-6.5-17.86a3.408,3.408,0,0,0-2.2,1.61c-1.4,1.8-4.3,11.268-4.3,13.912,0,1.3-.3,1.686-1.4,1.533-1.8-.268-2.2.268-4,4.906-3,7.972-5.9,28.4-7.3,51.088l-.7,12.264-1.8-3.449c-8.8-17.247-11.3-25.985-11.2-40.242,0-11.076.2-12.341,2.7-18.588,3.8-9.083,4.2-10.731,2.9-10.731-3,0-11.6,9.39-15.1,16.48-3.8,7.665-4.5,11.191-4.6,21.309v10.041l-2.2-4.676c-4.5-9.352-12.1-19.316-15-19.7-2.2-.268-1.7,2.606,4.6,26.943.5,1.878.8,3.488.6,3.564s-.9-.882-1.5-2.108a66.958,66.958,0,0,0-10.5-12.954,16.479,16.479,0,0,1-5-7.818c-4.1-11.919-12.6-26.522-21.5-36.831-10-11.651-21.7-19.929-19.4-13.874.3,1,2.8,6.209,5.5,11.574,6.1,12.341,10.4,22.076,12,27.02l1.1,3.833-3.5,4.407a134.979,134.979,0,0,0-12.2,18.013c-4.1,6.9-4,6.592,2.6-10.08,4.7-11.958,5.9-16.48,4.6-17.017-1.4-.537-8.9,7.589-15.2,16.557-4.1,5.9-4,5.442,2.6-11.689,5.4-13.721,6.9-19.546,5.1-19.546-2.3,0-10.6,9.2-17.6,19.546-12.4,18.281-20.6,38.326-23.2,57.221l-.7,4.867h-18l.7-2.8a185.5,185.5,0,0,1,7.1-19.24c.9-1.916,2.5-5.442,3.6-7.857,3.4-7.627,10.7-20.811,17-31.044,1.1-1.8,2.9-4.637,3.9-6.324s3-4.867,4.4-7.09c6.2-10,8-15.177,5.4-14.87-3.2.345-17,12.724-27.4,24.375l-4.9,5.519-1.7-4.254c-1.6-3.948-4.2-7.282-5.3-6.86-.2.077-.9,3.3-1.5,7.167-2.2,14.641-5.3,21-27.6,55.688-4,6.247-5.2,7.589-6.6,7.589a8.836,8.836,0,0,1-1.8-.115c0-.077,2.2-3.756,4.9-8.163,13-21.079,20.4-36.295,23-47.677,1.6-6.439,1.4-17.936-.4-22.229-2-5.059-4.3-7.857-6-7.205-.4.115-1,3.3-1.5,7.052a70.022,70.022,0,0,1-9,27.365l-2,3.641.6-4.6c1.1-8.547-3.4-21.271-7.5-21.271-1,0-2.1,4.063-2.1,8.048-.1,9.237-8.1,27.4-19.5,44.458l-1.4,2.108v-2.3c-.4-9.237-3.5-24.759-6.7-33.727A125.964,125.964,0,0,0,760-673.7c-10-11.651-21.7-19.929-19.4-13.874.3,1,2.8,6.209,5.5,11.574,9.5,19.24,13.1,28.591,16.4,42.5,2.5,10.731,3.5,26.292,2.5,37.981-.5,5.787-.9,11-1,11.574,0,.958-.4,1.073-3.5,1.073-3.5,0-3.5,0-3-1.418,2.4-6.822,3.3-33.382,1.5-45.57-4.8-32.5-21.2-63.161-46.3-86.655-7.4-6.9-15.3-12.379-17.7-12.379-2.3,0-.6,4.522,7,18.78,9,16.863,13.7,27.02,17.5,37.521a69.638,69.638,0,0,1,2.4,7.282,51.7,51.7,0,0,1-3.5-4.561c-8.1-11.229-19.6-23-25.7-26.138l-3.2-1.648-.3,1.725a6.838,6.838,0,0,0,.7,3.833c.5,1.15,3.2,6.592,6,12.073,8.9,17.822,12.7,27.288,16,39.284,2.6,9.275,5.2,25.333,5,30.277l-.1,2.491-.9-1.725c-8.1-15.062-20.2-26.445-37.5-35.107-3.3-1.686-5.4-3.1-5.4-3.718a1.379,1.379,0,0,0-2.4-.8c-.5.5-1.7.23-6-1.3a128.361,128.361,0,0,0-14.6-3.641c-8.1-1.533-9.6-2.031-14.2-4.369-2.9-1.418-8.8-3.986-13.3-5.672a92.785,92.785,0,0,0-18.3-5.1c-9.7-1.878-15.2-2.453-15.2-1.61,0,.192,5.3,2.491,11.8,5.059,17.4,6.937,16.5,6.285,15,11.5a32.89,32.89,0,0,1-1.3,4.408c0,.038-3.2-1.035-7-2.415a130.5,130.5,0,0,0-14.6-4.1l-7.7-1.61.5-1.993c.7-2.491-.8-2.683-3.7-.5a6.747,6.747,0,0,1-4.1,1.533c-1.7,0-2,.153-1.4,1.111.4.767-.4,2.031-3.1,4.484-2,1.878-6.1,5.9-8.9,8.93l-5.3,5.557-.7-4.6c-1.6-9.658.4-21.616,5.9-35.413,1.3-3.258,2.2-6.055,1.9-6.247-.8-.537-2.3.153-5.2,2.376-7.1,5.327-13.5,14.985-16.7,24.988-2.1,6.592-2.4,22.037-.5,30.814l1.4,6.515-2.8,4.6c-1.5,2.529-2.9,4.867-3.2,5.174-1.6,1.571-6.2-14.142-6.9-23.57-.7-8.393.5-15.905,4.1-24.989,2.7-6.707,3-8.547,1.6-8.547-.4,0-.4-.881.1-1.955,1.7-3.526-.5-3.871-4.6-.8-10.1,7.665-17.1,21.079-18.9,35.911l-.2,1.916-1.4-2.3c-9.6-16.174-40.4-48.789-46.8-49.555-3.1-.345-1.3,3.909,9.3,21.118,9.3,15.292,12.7,21.041,17,29.2,6.5,12.226,14.7,31.581,15.8,37.368.6,2.913.2,2.3-2.5-4.216-7.6-18.167-22.3-39.016-38.9-55.036-9.6-9.313-15.8-13.222-14.8-9.428.2.843.2,1.533.1,1.456-.2-.038-2.5-1.84-5.3-3.986-2.7-2.146-5.5-3.909-6.1-3.909-.9,0-1,.843-.6,2.951.6,3.219,2.4,6.477,12.8,23.111,12.7,20.274,21.7,38.633,27.9,56.531,1.1,3.143,2,5.979,2,6.209,0,.383-2.4.5-8.9.5h-9l-.5-2.031a60.485,60.485,0,0,1-1.1-6.4c-2.5-19.738-15.4-46.6-31.1-64.962-5-5.787-7.8-8.24-9.5-8.24-1.6,0-.6,3.334,6.2,20.849,3.2,8.432,5.7,15.369,5.5,15.445a18.494,18.494,0,0,1-2.6-3.411c-5.4-8.547-13-17.17-15.8-18.052-1.3-.422-1.4-.077-.8,2.606.4,1.686,3,8.738,5.7,15.675s4.8,12.8,4.6,12.992c-.2.23-.9-.8-1.5-2.261-1.9-3.948-8.7-14.257-13.1-19.853l-3.9-4.982,2.4-6.247c3.2-8.393,4.6-11.574,10.5-23.226,2.7-5.4,5.3-11.038,5.6-12.456.6-2.453.6-2.529-1.2-1.993-4.4,1.38-16.2,12.763-23.4,22.421-6.5,8.815-14.7,24.605-16.7,32a12.337,12.337,0,0,1-3.4,4.982,70.143,70.143,0,0,0-11,13.184l-1.9,3.1.5-2.491c.2-1.38,1.5-7.052,2.9-12.648s2.8-11.306,3.1-12.686c.6-2.568-.3-3.488-2.4-2.529-3.1,1.418-12.4,14.717-15.1,21.731a24.159,24.159,0,0,1-1.4,2.913c-.1.038-.2-5.1-.2-11.459,0-12.724-1.1-16.863-6.6-25.065-4.5-6.707-11.2-12.763-13.3-12-.3.115.8,3.564,2.4,7.665,5.5,14.219,6.2,23.992,2.5,37.943-2,7.359-10,26.292-11.5,26.943-.3.153-.7-3.986-.8-9.2-.5-19.968-4.1-46.719-7.3-54.346-1.8-4.178-2-4.484-3.5-4.254-.9.115-1.4-.038-1.4-.5,0-1.878-3.3-12.839-4.3-14.449-3.3-4.982-6.3-.46-8.7,12.878a307,307,0,0,0-3.1,34.877c-.1,9.275-1.3,8.125-2.3-2.3s-4.2-26.79-6.2-31.427c-1.1-2.683-3.3-4.062-4.9-3.1-2.4,1.495-5,13.644-6.5,29.549-.8,9.773-3,47.754-3,53.426v1.38H259.5l.3-4.867a21.451,21.451,0,0,1,3.2-9.888c5.8-10.041,10.1-19.431,12.5-27.4,1.8-5.9,2.1-17.86.5-21.731-1.5-3.564-4-6.822-5-6.4-.4.192-1.3,3.679-1.9,7.78-1.3,8.47-2.7,12.8-7.4,22.076-3,6.17-3.2,6.4-3.9,4.6-1.2-3.488-.8-7.244,1.2-12.648,3.2-8.892,4.4-18.55,3.1-24.95-1.5-6.822-5.2-12.916-7.5-12-.2.077-.9,3.679-1.5,8.01a59.528,59.528,0,0,1-1.8,9.352c-.5,1.341-.7,1.418-1.5.652a2.033,2.033,0,0,0-1.7-.652c-1.3.307-3.1,4.637-3.9,9.466l-.7,3.986-.8-4.6c-1.1-7.512-5.2-14.755-7.7-13.759-.5.192-1.2,3.1-1.6,6.477-1,8.547-2.1,10.961-2.3,4.791-.1-4.982-2.3-20.313-4.1-28.936-3-13.951-6.8-26.33-13.5-43.5-.8-2.185-1.6-8.2-1.9-14.947-.5-10.655-.4-11.689,2-18.013a121.31,121.31,0,0,1,40.3-53.58c11-8.393,29.4-19.853,45.8-28.4,2.5-1.38,4.2-2.338,3.5-2.185-1.6.345-19.7,10.041-27.4,14.6-20,11.881-37.5,25.717-47.8,37.789-6,7.014-17,24.682-17,27.365a.924.924,0,0,1-.9.958c-1.6,0-2.4-24.414-1.2-35.26,4.6-41.469,22.6-68.6,67.7-101.947,4.2-3.066,7.1-5.4,6.6-5.174-3.1,1.188-24.6,17.745-34,26.253-36.1,32.577-48.8,65.192-45.3,116.587.7,9.083,1,16.6.7,16.672-.2.077-.7-.575-1.1-1.495-4-9.313-19.1-32.155-32.1-48.559a195,195,0,0,1-17.8-28.016c-16.3-31.427-18.5-61.858-6.6-88.993,2.9-6.554,3.2-6.9,9-9.811l5.2-2.568-5.1,2.108c-5.9,2.453-5.9,2.874-.5-5.174C158.6-923.352,159.1-924.578,157.7-923.659ZM211.5-674.77a265.667,265.667,0,0,1,3.5,38.4c0,12.418-2,33.305-3.4,36.065-1.1,2.108-1.3,1.533-1.9-7.665a118.988,118.988,0,0,0-2.1-16.289c-1.7-7.014-1.9-7.512-4.8-15.215-1.9-5.212-1.9-5.634-.4-10.923,3.3-11.383,6.6-26.867,6.6-30.737C209-685.731,210.2-682.742,211.5-674.77Zm379.6,22.8c11.4,4.522,20.9,9.581,18.9,10.08-.9.192-1.1,1.15-.9,3.181.3,1.571.1,2.8-.3,2.721-.5-.115-.8-.383-.8-.575,0-.728-4.2-4.177-5.1-4.177-1.5,0-1,3.986,1.8,13.414,2.3,8.01,2.6,10.961,3,26.752l.5,17.707H599v-16.978c0-30.316-3-49.785-7.8-50.4a1.835,1.835,0,0,0-1.7.958,10.8,10.8,0,0,1-1.5,1.84c-.7.652-.9.652-.9.077-.1-.8-1.7-.881-2.4-.077-2.4,2.338-6,17.553-7.7,32.194-.6,5.059-1.3,10.655-1.7,12.456l-.6,3.258-2.8-5.557c-1.6-3.066-4-8.163-5.4-11.344l-2.6-5.749,6-9.965c10.7-17.975,13.5-22.382,14.1-22.382C584.3-654.534,587.5-653.384,591.1-651.966Zm42.4,3.334,6.9,5.174,1.7,5.481a36.632,36.632,0,0,1,1.4,5.6,12.959,12.959,0,0,1-3.3-2.3c-1.7-1.341-5.3-3.833-8-5.557-4.9-3.1-5-3.181-5.6-7.282a38.692,38.692,0,0,0-1.3-5.442c-.3-.728-.2-1.188.3-1.073A65.5,65.5,0,0,1,633.5-648.632Zm25.6,2.031c5.6,2.721,5.7,2.8,4.7,4.292-.6.882-1.4,1.456-1.9,1.341s-.9-.383-.9-.575a46.281,46.281,0,0,0-5.6-4.637C649.4-650.778,650.2-650.893,659.1-646.6ZM91.2-642.461c12.3,7.014,23.4,17.477,29.3,27.595,4.9,8.47,8.5,20.351,8.5,28.208v3.794H111.2l-.6-7.014c-2.3-23.609-13.1-43.155-31.5-56.8-2-1.495-3.7-2.874-3.9-3.066C74.4-650.74,85.8-645.527,91.2-642.461Zm586.1,6.9c16.4,12.648,25.3,27.94,27.4,46.834l.6,5.864H686v-6.094c0-13.644-5.4-28.936-14.5-41.085-3.4-4.446-3.4-4.676-2.3-7.435.6-1.61,1.5-2.76,1.9-2.606C671.5-639.893,674.3-637.9,677.3-635.562Zm247.6,18.78a118.529,118.529,0,0,1,.1,21.462c-.5,5.672-.9,10.808-1,11.383v1.073H906.8l.6-2.415c.4-1.3,1.1-4.637,1.6-7.359,1.9-8.93,5.8-20.849,12.1-36.793.5-1.265.9-2.568,1-2.874C922.6-634.144,924-626.4,924.9-616.783Zm-515.5-2.491c5.2,14.1,9.5,29.4,9.6,34.378v2.031H403.3l-.7-2.415c-2.2-8.585-1.4-41.584,1.1-46.068.6-1.073.7-1,1.4.767C405.5-629.545,407.4-624.448,409.4-619.274ZM242.7-630.312c-.3.307-.6.192-.6-.23-.1-.422.2-.652.5-.5A.407.407,0,0,1,242.7-630.312Zm808.3,5.481c6.7,12.456,16,35.911,16,40.281v1.725l-8.7-.115-8.8-.115-.6-16.48c-.4-9.083-1-19.815-1.3-23.915s-.4-7.359-.2-7.282C1047.7-630.618,1049.3-627.974,1051-624.831Zm-417.2,2.185a87.1,87.1,0,0,1,7.2,9.965c2.4,4.1,2.4,4.139.7,8.815a79.179,79.179,0,0,0-2.6,8.508c-1.1,4.216-2.1,5.251-2.1,2.108,0-2.951-3.6-14.181-7-22-1.8-4.062-4.7-19.738-3.4-19.738C626.8-634.988,631.1-625.828,633.8-622.647ZM187.6-598.961a110.456,110.456,0,0,1-1.3,13.222c-.5,2.53-.8,2.874-2.6,2.874-1.7,0-1.9-.192-1.4-1.456a55.679,55.679,0,0,0,1.2-8.892c.5-6.707,3-16.1,4.3-16.1C188.1-609.309,188-604.633,187.6-598.961Zm191.7,6.4c.6,9.658.6,9.7-1.5,9.7s-2.1-.077-1.4-7.4c.6-6.784,1.6-12.3,2.1-12.073C378.6-602.257,379-597.85,379.3-592.561Zm571.6,6.9c.1,2.759.1,2.8-2.5,2.8-1.9,0-2.4-.153-2-.69a75.036,75.036,0,0,0,1.2-9.658l.8-9.007,1.2,6.9A79.163,79.163,0,0,1,950.9-585.662Zm-392.4-6.362c2.5,4.484,4.8,8.432,5,8.7.4.383-.9.46-5.2.383l-5.7-.115L551-585.93c-1.6-2.721-1.5-3.181.4-8.7a36.253,36.253,0,0,1,2.3-5.711C553.8-600.3,556-596.547,558.5-592.024Zm575.6-.422c6.1,10.808,6.1,9.581-.3,9.581h-5.5l-1.6-3.066c-1.6-2.951-1.5-3.334.5-8.892,1.2-3.181,2.3-5.634,2.5-5.442C1129.8-600.073,1131.8-596.547,1134.1-592.446Zm-892.3-.5a20.683,20.683,0,0,1-2.8,6.515c-1.9,2.913-2.7,3.564-4.3,3.564-1.3,0-1.7-.192-1.3-.69.4-.537,3.4-5.289,7.1-11.5C241.6-596.815,242.2-595.78,241.8-592.944Z" transform="translate(-50 1601.777)"/>
  </g>
</svg>
