<?xml version="1.0" encoding="utf-8"?>
<!-- Svg Vector Icons : http://www.onlinewebfonts.com/icon -->
<!DOCTYPE svg PUBLIC "-//W3C//DTD SVG 1.1//EN" "http://www.w3.org/Graphics/SVG/1.1/DTD/svg11.dtd">
<svg version="1.1" xmlns="http://www.w3.org/2000/svg" xmlns:xlink="http://www.w3.org/1999/xlink" x="0px" y="0px" viewBox="0 0 1000 1000" enable-background="new 0 0 1000 1000" xml:space="preserve">
<metadata> Svg Vector Icons : http://www.onlinewebfonts.com/icon </metadata>
<g><path d="M499.5,10c67.9,0,131.6,13,191.1,38.9c59.5,25.9,111.5,61,156,105.1c44.5,44.2,79.6,96,105.1,155.5C977.2,369,990,432.7,990,500.5c0,67.9-12.8,131.4-38.3,190.5c-25.5,59.1-60.6,111-105.1,155.5c-44.5,44.5-96.5,79.6-156,105.1C631,977.2,567.3,990,499.5,990c-67.9,0-131.4-12.8-190.5-38.3c-59.1-25.5-111-60.6-155.5-105.1C108.9,802,73.9,750.2,48.3,691.1C22.8,631.9,10,568.4,10,500.5c0-67.9,12.8-131.6,38.3-191.1S108.9,198.2,153.4,154c44.5-44.2,96.4-79.2,155.5-105.1C368.1,23,431.6,10,499.5,10L499.5,10z M500.5,835.6c19,0,34.9-6.4,47.6-19.2c12.8-12.8,19.2-28.3,19.2-46.5c0-19-6.4-34.9-19.2-47.6c-12.8-12.8-28.7-19.2-47.6-19.2c-19,0-34.9,6.4-47.6,19.2c-12.8,12.8-19.2,28.7-19.2,47.6c0,18.3,6.4,33.8,19.2,46.5C465.7,829.2,481.6,835.6,500.5,835.6z M556.4,566.2c-0.7-11.7,6.6-24.1,21.9-37.2c15.3-13.1,32.5-27.7,51.5-43.8c19-16.1,36.5-34.1,52.6-54.2c16.1-20.1,24.8-43.3,26.3-69.5c1.5-28.5-1.5-55.1-8.8-79.9c-7.3-24.8-19.3-46.2-36.1-64.1c-16.8-17.9-38.5-32.1-65.2-42.7c-26.6-10.6-57.9-15.9-93.6-15.9c-44.5,0-81.6,7.8-111.1,23.5c-29.6,15.7-53.5,34.7-71.7,56.9c-18.2,22.3-31,45.3-38.3,69c-7.3,23.7-10.6,43.6-9.9,59.7c0.7,19,6.8,32.8,18.1,41.6c11.3,8.8,23.5,13.3,36.7,13.7c13.1,0.4,25.2-3.3,36.1-10.9c11-7.7,16.4-18.8,16.4-33.4c0-8.8,2.7-19.5,8.2-32.3c5.5-12.8,13-25,22.4-36.7c9.5-11.7,21-21.5,34.5-29.6c13.5-8,28.7-12,45.4-12c32.8,0,59.1,8.2,78.8,24.6c19.7,16.4,28.8,37,27.4,61.9c0,12.4-3.7,23.9-10.9,34.5c-7.3,10.6-16.6,20.8-27.9,30.7c-11.3,9.9-23.4,19.7-36.1,29.6s-24.8,20.1-36.1,30.7c-11.3,10.6-20.8,22.1-28.5,34.5c-7.7,12.4-11.9,25.9-12.6,40.5l1.1,41.6c0,10.9,5.1,21.4,15.3,31.2c10.2,9.9,23.7,15.1,40.5,15.9c16.8-0.7,30.1-6.2,40-16.4c9.9-10.2,14.4-21.9,13.7-35V566.2L556.4,566.2z"/></g>
</svg>