<?xml version="1.0" encoding="utf-8"?>
<!-- Svg Vector Icons : http://www.onlinewebfonts.com/icon -->
<!DOCTYPE svg PUBLIC "-//W3C//DTD SVG 1.1//EN" "http://www.w3.org/Graphics/SVG/1.1/DTD/svg11.dtd">
<svg version="1.1" xmlns="http://www.w3.org/2000/svg" xmlns:xlink="http://www.w3.org/1999/xlink" width="100%" height="100%" viewBox="0 0 1920 1080" enable-background="new 0 0 1920 1080" xml:space="preserve">
<metadata> Svg Vector Icons : http://www.onlinewebfonts.com/icon </metadata>
<g><g><path d="M839.1,630c3.1-6.2,3.1-15.4-3.1-21.6c-61.8-58.7-120.5-120.5-180.8-179.2C613.5,389,548.6,316.4,489.9,300.9c-38.6-10.8-91.2,60.3-114.3,80.3c-68,57.2-129.8,128.2-179.2,200.9c-1.5,3.1-3.1,6.2-1.5,9.3v1.5c-6.2,68-15.5,136-17,205.5c0,27.8-6.2,100.4,23.2,119c1.5,4.6,6.2,7.7,12.4,7.7c30.9,3.1,63.4,4.6,94.3,6.2c27.8,1.5,61.8,4.6,86.5-10.8l0,0c7.7,3.1,17-1.5,20.1-9.3c12.4-41.7,4.6-94.3,7.7-137.5c3.1-38.6,4.6-81.9-4.6-120.5c32.4,4.6,64.9,7.7,95.8,10.8c24.7,3.1,58.7,7.7,86.5,4.6c0,40.2,0,80.3,0,120.5c0,21.6-1.5,44.8-3.1,66.4c-1.5,17-9.3,34-4.6,51c0,1.5,1.5,3.1,3.1,4.6c-7.7,7.7-3.1,24.7,10.8,26.3c41.7,3.1,83.4,6.2,125.2,7.7c27.8,1.5,71.1,4.6,91.2-17c6.2,0,10.8-4.6,13.9-10.8C866.9,832.5,848.4,718.1,839.1,630z"/><path d="M985.9,521.9c-27.8-27.8-64.9-46.4-94.3-72.6c-34-30.9-64.9-66.4-95.8-100.4c-92.7-100.4-179.2-204-284.3-292c-9.3-7.7-21.6,0-21.6,9.3c-57.2,4.6-132.9,112.8-163.8,145.2c-95.8,102-196.2,208.6-310.6,288.9c-9.3,6.2-6.2,20.1,3.1,23.2C37.2,549.7,62,571.3,85.1,593c4.6,4.6,10.8,6.2,17,4.6c6.2,3.1,13.9,3.1,20.1-3.1c47.9-43.3,88.1-92.7,132.9-139.1c80.3-81.9,180.8-140.6,251.8-230.2l0,0c80.3,66.4,159.1,136,231.8,210.1c46.4,46.4,97.3,131.3,160.7,153l0,0c1.5,3.1,6.2,4.6,9.3,4.6c12.4,1.5,23.2-4.6,34-9.3c12.4-6.2,21.6-17,29.4-27.8c1.5-1.5,1.5-4.6,3.1-6.2l0,0C987.5,548.2,995.2,532.7,985.9,521.9z"/></g><g></g><g></g><g></g><g></g><g></g><g></g><g></g><g></g><g></g><g></g><g></g><g></g><g></g><g></g><g></g></g>
</svg>
